<?xml version="1.0" encoding="UTF-8" standalone="no"?>
<svg
   xmlns:dc="http://purl.org/dc/elements/1.1/"
   xmlns:cc="http://creativecommons.org/ns#"
   xmlns:rdf="http://www.w3.org/1999/02/22-rdf-syntax-ns#"
   xmlns:svg="http://www.w3.org/2000/svg"
   xmlns="http://www.w3.org/2000/svg"
   xmlns:sodipodi="http://sodipodi.sourceforge.net/DTD/sodipodi-0.dtd"
   xmlns:inkscape="http://www.inkscape.org/namespaces/inkscape"
   id="svg8"
   version="1.1"
   viewBox="0 0 130.96875 36.512501"
   height="138"
   width="495"
   sodipodi:docname="logo-v4.svg"
   inkscape:version="0.92.5 (2060ec1f9f, 2020-04-08)">
  <sodipodi:namedview
     pagecolor="#ffffff"
     bordercolor="#666666"
     borderopacity="1"
     objecttolerance="10"
     gridtolerance="10"
     guidetolerance="10"
     inkscape:pageopacity="0"
     inkscape:pageshadow="2"
     inkscape:window-width="1920"
     inkscape:window-height="1043"
     id="namedview29"
     showgrid="false"
     units="px"
     inkscape:zoom="1.6692803"
     inkscape:cx="211.13306"
     inkscape:cy="62.303595"
     inkscape:window-x="1600"
     inkscape:window-y="0"
     inkscape:window-maximized="1"
     inkscape:current-layer="svg8" />
  <defs
     id="defs2" />
  <metadata
     id="metadata5">
    <rdf:RDF>
      <cc:Work
         rdf:about="">
        <dc:format>image/svg+xml</dc:format>
        <dc:type
           rdf:resource="http://purl.org/dc/dcmitype/StillImage" />
        <dc:title></dc:title>
      </cc:Work>
    </rdf:RDF>
  </metadata>
  <g
     id="g903"
     transform="translate(-0.39058639,-0.22404964)">
    <flowRoot
       transform="translate(-9.7421057,-249.97149)"
       style="font-style:normal;font-weight:normal;font-size:40px;line-height:1.25;font-family:sans-serif;letter-spacing:0px;word-spacing:0px;fill:#000000;fill-opacity:1;stroke:none"
       id="flowRoot892"
       xml:space="preserve"><flowRegion
         id="flowRegion894"><rect
           y="93.233971"
           x="160"
           height="300"
           width="441.42856"
           id="rect896" /></flowRegion><flowPara
         id="flowPara898" /></flowRoot>    <text
       id="text969"
       y="-301.49097"
       x="-72.283173"
       style="font-style:normal;font-weight:normal;font-size:10.58333302px;line-height:1.25;font-family:sans-serif;letter-spacing:0px;word-spacing:0px;fill:#000000;fill-opacity:1;stroke:none;stroke-width:0.26458332"
       xml:space="preserve"><tspan
         style="font-style:normal;font-variant:normal;font-weight:bold;font-stretch:normal;font-family:Roboto;-inkscape-font-specification:'Roboto Bold';stroke-width:0.26458332"
         y="-292.1272"
         x="-72.283173"
         id="tspan967" /></text>
    <rect
       y="4.7157507"
       x="0.34211519"
       height="30.305311"
       width="60.55093"
       id="rect939"
       style="opacity:1;fill:#ffffff;fill-opacity:1;stroke:none;stroke-width:1.0320791;stroke-linecap:butt;stroke-miterlimit:4;stroke-dasharray:none;stroke-opacity:1" />
    <rect
       y="15.877936"
       x="1.1358087"
       height="14.900276"
       width="14.900276"
       id="rect941"
       style="opacity:1;fill:#fe0000;fill-opacity:1;stroke:none;stroke-width:1.32291663;stroke-linecap:round;stroke-miterlimit:4;stroke-dasharray:none;stroke-opacity:1" />
    <rect
       y="6.6699286"
       x="16.036085"
       height="9.2080002"
       width="9.2080002"
       id="rect943"
       style="opacity:1;fill:#fd9500;fill-opacity:1;stroke:none;stroke-width:2.00339603;stroke-linecap:round;stroke-miterlimit:4;stroke-dasharray:none;stroke-opacity:1" />
    <rect
       y="0.97893417"
       x="10.345076"
       height="5.691"
       width="5.691"
       id="rect945"
       style="opacity:1;fill:#00c100;fill-opacity:1;stroke:none;stroke-width:1.50234938;stroke-linecap:round;stroke-miterlimit:4;stroke-dasharray:none;stroke-opacity:1" />
    <rect
       style="opacity:1;fill:#01c5ff;fill-opacity:1;stroke:none;stroke-width:0.92844188;stroke-linecap:round;stroke-miterlimit:4;stroke-dasharray:none;stroke-opacity:1"
       id="rect947"
       width="3.517"
       height="3.517"
       x="6.8280849"
       y="6.6699286" />
    <path
       inkscape:connector-curvature="0"
       id="path950"
       style="font-style:normal;font-weight:normal;font-size:10.58333302px;line-height:1.25;font-family:sans-serif;letter-spacing:0px;word-spacing:0px;fill:#ffffff;fill-opacity:1;stroke:none;stroke-width:0.26458332"
       d="m 8.7574673,22.38339 2.7750237,6.64042 2.78536,-6.64042 h 0.847493 v 7.52408 h -0.63562 v -3.27628 l 0.05168,-3.35897 -2.800863,6.63525 h -0.490926 l -2.7905267,-6.60941 0.05168,3.31246 v 3.29695 h -0.63562 v -7.52408 z" />
    <path
       inkscape:connector-curvature="0"
       id="path952"
       style="font-style:normal;font-variant:normal;font-weight:300;font-stretch:normal;font-size:10.58333302px;line-height:1.25;font-family:Roboto;-inkscape-font-specification:'Roboto weight=255';letter-spacing:0px;word-spacing:0px;fill:#000000;fill-opacity:1;stroke:none;stroke-width:0.26458332"
       d="m 20.52419,29.19951 q -0.558105,0.81132 -1.782837,0.81132 -0.894002,0 -1.35909,-0.51677 -0.465088,-0.52193 -0.475423,-1.53995 v -3.63803 h 0.61495 v 3.56051 q 0,1.5968 1.29191,1.5968 1.343588,0 1.700155,-1.11104 v -4.04627 h 0.620117 v 5.59139 h -0.599447 z" />
    <path
       inkscape:connector-curvature="0"
       id="path954"
       style="font-style:normal;font-variant:normal;font-weight:300;font-stretch:normal;font-size:10.58333302px;line-height:1.25;font-family:Roboto;-inkscape-font-specification:'Roboto weight=255';letter-spacing:0px;word-spacing:0px;fill:#000000;fill-opacity:1;stroke:none;stroke-width:0.26458332"
       d="m 23.433571,29.90747 h -0.62011 v -7.9375 h 0.62011 z" />
    <path
       inkscape:connector-curvature="0"
       id="path956"
       style="font-style:normal;font-variant:normal;font-weight:300;font-stretch:normal;font-size:10.58333302px;line-height:1.25;font-family:Roboto;-inkscape-font-specification:'Roboto weight=255';letter-spacing:0px;word-spacing:0px;fill:#000000;fill-opacity:1;stroke:none;stroke-width:0.26458332"
       d="m 26.074241,22.88465 v 1.43143 h 1.15755 v 0.50643 h -1.15755 v 3.72587 q 0,0.46509 0.16536,0.69247 0.17053,0.22738 0.56327,0.22738 0.15503,0 0.50127,-0.0517 l 0.0258,0.50643 q -0.24287,0.0879 -0.66145,0.0879 -0.63562,0 -0.92501,-0.3669 -0.28939,-0.37207 -0.28939,-1.09037 v -3.73108 h -1.02836 v -0.50643 h 1.02836 v -1.43144 z" />
    <path
       inkscape:connector-curvature="0"
       id="path958"
       style="font-style:normal;font-variant:normal;font-weight:300;font-stretch:normal;font-size:10.58333302px;line-height:1.25;font-family:Roboto;-inkscape-font-specification:'Roboto weight=255';letter-spacing:0px;word-spacing:0px;fill:#000000;fill-opacity:1;stroke:none;stroke-width:0.26458332"
       d="m 29.205831,29.90747 h -0.62012 v -5.59139 h 0.62012 z m -0.72864,-7.20886 q 0,-0.1757 0.11369,-0.29455 0.11369,-0.12403 0.31006,-0.12403 0.19637,0 0.31006,0.12403 0.11885,0.11885 0.11885,0.29455 0,0.1757 -0.11885,0.29456 -0.11369,0.11885 -0.31006,0.11885 -0.19637,0 -0.31006,-0.11885 -0.11369,-0.11886 -0.11369,-0.29456 z" />
    <path
       inkscape:connector-curvature="0"
       id="path960"
       style="font-style:normal;font-variant:normal;font-weight:300;font-stretch:normal;font-size:10.58333302px;line-height:1.25;font-family:Roboto;-inkscape-font-specification:'Roboto weight=255';letter-spacing:0px;word-spacing:0px;fill:#000000;fill-opacity:1;stroke:none;stroke-width:0.26458332"
       d="m 36.357851,27.56137 q -0.12919,1.18855 -0.85266,1.81901 -0.71831,0.63045 -1.9172,0.63045 -0.83716,0 -1.48311,-0.41858 -0.64079,-0.41858 -0.99219,-1.18339 -0.3514,-0.76998 -0.35657,-1.757 v -0.97669 q 0,-1.00252 0.3514,-1.77766 0.3514,-0.77515 1.00769,-1.19373 0.66146,-0.42375 1.51929,-0.42375 1.20923,0 1.90686,0.65629 0.7028,0.65113 0.81649,1.80351 h -0.64079 q -0.23771,-1.91719 -2.08256,-1.91719 -1.02319,0 -1.63297,0.76481 -0.60462,0.76481 -0.60462,2.11356 v 0.91984 q 0,1.30225 0.58911,2.0774 0.59428,0.77514 1.60197,0.77514 0.99736,0 1.50379,-0.47542 0.50642,-0.48059 0.62528,-1.4366 z" />
    <path
       inkscape:connector-curvature="0"
       id="path962"
       style="font-style:normal;font-variant:normal;font-weight:300;font-stretch:normal;font-size:10.58333302px;line-height:1.25;font-family:Roboto;-inkscape-font-specification:'Roboto weight=255';letter-spacing:0px;word-spacing:0px;fill:#000000;fill-opacity:1;stroke:none;stroke-width:0.26458332"
       d="m 41.964741,27.79908 h -3.41581 l -0.77515,2.10839 h -0.66662 l 2.84737,-7.52408 h 0.60461 l 2.84737,7.52408 h -0.66146 z m -3.21944,-0.54261 h 3.0179 l -1.50895,-4.09794 z" />
    <path
       inkscape:connector-curvature="0"
       id="path964"
       style="font-style:normal;font-variant:normal;font-weight:300;font-stretch:normal;font-size:10.58333302px;line-height:1.25;font-family:Roboto;-inkscape-font-specification:'Roboto weight=255';letter-spacing:0px;word-spacing:0px;fill:#000000;fill-opacity:1;stroke:none;stroke-width:0.26458332"
       d="m 48.770531,28.05746 q 0,-0.62529 -0.43925,-0.98702 -0.43925,-0.3669 -1.60714,-0.69247 -1.16789,-0.33073 -1.70532,-0.7183 -0.76481,-0.54777 -0.76481,-1.4366 0,-0.863 0.70796,-1.40043 0.71314,-0.54261 1.81901,-0.54261 0.74931,0 1.33842,0.28939 0.59428,0.28939 0.91984,0.80615 0.32557,0.51677 0.32557,1.15239 h -0.64079 q 0,-0.76998 -0.5271,-1.23507 -0.5271,-0.47025 -1.41594,-0.47025 -0.86299,0 -1.37459,0.38757 -0.5116,0.3824 -0.5116,1.00252 0,0.57361 0.45992,0.93535 0.45992,0.36173 1.47278,0.64078 1.01286,0.27389 1.53479,0.57361 0.52193,0.29456 0.78548,0.70797 0.26355,0.41341 0.26355,0.97668 0,0.88884 -0.71313,1.42627 -0.70797,0.53744 -1.87069,0.53744 -0.79581,0 -1.46244,-0.28422 -0.66146,-0.28422 -1.00769,-0.79582 -0.34107,-0.5116 -0.34107,-1.17306 h 0.63562 q 0,0.79582 0.59428,1.25574 0.59428,0.45992 1.5813,0.45992 0.8785,0 1.41077,-0.38757 0.53227,-0.38757 0.53227,-1.02836 z" />
    <path
       inkscape:connector-curvature="0"
       id="path966"
       style="font-style:normal;font-variant:normal;font-weight:300;font-stretch:normal;font-size:10.58333302px;line-height:1.25;font-family:Roboto;-inkscape-font-specification:'Roboto weight=255';letter-spacing:0px;word-spacing:0px;fill:#000000;fill-opacity:1;stroke:none;stroke-width:0.26458332"
       d="m 55.886371,22.92599 h -2.57865 v 6.98148 h -0.63562 v -6.98148 h -2.57349 v -0.5426 h 5.78776 z" />
    <text
       id="text974"
       y="35.078362"
       x="0.90827727"
       style="font-style:normal;font-variant:normal;font-weight:normal;font-stretch:normal;font-size:10.58333302px;line-height:1.25;font-family:Roboto;-inkscape-font-specification:Roboto;letter-spacing:0px;word-spacing:0px;fill:#000000;fill-opacity:1;stroke:none;stroke-width:0.26458332"
       xml:space="preserve"><tspan
         style="font-style:normal;font-variant:normal;font-weight:300;font-stretch:normal;font-size:4.23333359px;font-family:Roboto;-inkscape-font-specification:'Roboto Light';stroke-width:0.26458332"
         y="35.078362"
         x="0.90827727"
         id="tspan972">Multiscale Thermal-related Urban Climate Analysis and Simulation Tool</tspan></text>
  </g>
</svg>
