<?xml version="1.0" encoding="UTF-8" standalone="no"?>
<svg
   id="svg8"
   version="1.1"
   viewBox="0 0 150.28333 36.512501"
   height="138"
   width="568"
   sodipodi:docname="logo-v5.svg"
   inkscape:version="1.2.1 (8a69933317, 2022-10-28, custom)"
   xmlns:inkscape="http://www.inkscape.org/namespaces/inkscape"
   xmlns:sodipodi="http://sodipodi.sourceforge.net/DTD/sodipodi-0.dtd"
   xmlns="http://www.w3.org/2000/svg"
   xmlns:svg="http://www.w3.org/2000/svg"
   xmlns:rdf="http://www.w3.org/1999/02/22-rdf-syntax-ns#"
   xmlns:cc="http://creativecommons.org/ns#"
   xmlns:dc="http://purl.org/dc/elements/1.1/">
  <sodipodi:namedview
     pagecolor="#ffffff"
     bordercolor="#666666"
     borderopacity="1"
     objecttolerance="10"
     gridtolerance="10"
     guidetolerance="10"
     inkscape:pageopacity="0"
     inkscape:pageshadow="2"
     inkscape:window-width="1920"
     inkscape:window-height="1043"
     id="namedview29"
     showgrid="false"
     units="px"
     inkscape:zoom="1.153169"
     inkscape:cx="435.32214"
     inkscape:cy="31.218321"
     inkscape:window-x="1920"
     inkscape:window-y="0"
     inkscape:window-maximized="1"
     inkscape:current-layer="svg8"
     inkscape:showpageshadow="2"
     inkscape:pagecheckerboard="0"
     inkscape:deskcolor="#d1d1d1" />
  <defs
     id="defs2" />
  <metadata
     id="metadata5">
    <rdf:RDF>
      <cc:Work
         rdf:about="">
        <dc:format>image/svg+xml</dc:format>
        <dc:type
           rdf:resource="http://purl.org/dc/dcmitype/StillImage" />
      </cc:Work>
    </rdf:RDF>
  </metadata>
  <flowRoot
     transform="translate(-9.9135177,-250.67303)"
     style="font-style:normal;font-weight:normal;font-size:40px;line-height:1.25;font-family:sans-serif;letter-spacing:0px;word-spacing:0px;fill:#000000;fill-opacity:1;stroke:none"
     id="flowRoot892"
     xml:space="preserve"><flowRegion
       id="flowRegion894"><rect
         y="93.233971"
         x="160"
         height="300"
         width="441.42856"
         id="rect896" /></flowRegion><flowPara
       id="flowPara898" /></flowRoot>
  <text
     id="text969"
     y="-302.1925"
     x="-72.454582"
     style="font-style:normal;font-weight:normal;font-size:10.5833px;line-height:1.25;font-family:sans-serif;letter-spacing:0px;word-spacing:0px;fill:#000000;fill-opacity:1;stroke:none;stroke-width:0.264583"
     xml:space="preserve"><tspan
       style="font-style:normal;font-variant:normal;font-weight:bold;font-stretch:normal;font-family:Roboto;-inkscape-font-specification:'Roboto Bold';stroke-width:0.264583"
       y="-292.82874"
       x="-72.454582"
       id="tspan967" /></text>
  <rect
     y="4.0142102"
     x="0.1707031"
     height="30.305311"
     width="60.55093"
     id="rect939"
     style="fill:#ffffff;fill-opacity:1;stroke:none;stroke-width:1.03208;stroke-linecap:butt;stroke-miterlimit:4;stroke-dasharray:none;stroke-opacity:1" />
  <g
     id="g786">
    <g
       id="g706">
      <rect
         y="15.176395"
         x="0.96439666"
         height="14.900276"
         width="14.900276"
         id="rect941"
         style="fill:#fe0000;fill-opacity:1;stroke:none;stroke-width:1.32292;stroke-linecap:round;stroke-miterlimit:4;stroke-dasharray:none;stroke-opacity:1" />
      <rect
         y="5.9683881"
         x="15.864673"
         height="9.2080002"
         width="9.2080002"
         id="rect943"
         style="fill:#fd9500;fill-opacity:1;stroke:none;stroke-width:2.0034;stroke-linecap:round;stroke-miterlimit:4;stroke-dasharray:none;stroke-opacity:1" />
      <rect
         y="0.27739343"
         x="10.173663"
         height="5.691"
         width="5.691"
         id="rect945"
         style="fill:#00c100;fill-opacity:1;stroke:none;stroke-width:1.50235;stroke-linecap:round;stroke-miterlimit:4;stroke-dasharray:none;stroke-opacity:1" />
      <rect
         style="fill:#01c5ff;fill-opacity:1;stroke:none;stroke-width:0.928442;stroke-linecap:round;stroke-miterlimit:4;stroke-dasharray:none;stroke-opacity:1"
         id="rect947"
         width="3.517"
         height="3.517"
         x="6.656673"
         y="5.9683881" />
      <path
         inkscape:connector-curvature="0"
         id="path950"
         style="font-style:normal;font-weight:normal;font-size:10.5833px;line-height:1.25;font-family:sans-serif;letter-spacing:0px;word-spacing:0px;fill:#ffffff;fill-opacity:1;stroke:none;stroke-width:0.264583"
         d="m 8.5860552,21.681849 2.7750238,6.64042 2.78536,-6.64042 h 0.847493 v 7.52408 h -0.63562 v -3.27628 l 0.05168,-3.35897 -2.800863,6.63525 h -0.490926 l -2.7905268,-6.60941 0.05168,3.31246 v 3.29695 h -0.63562 v -7.52408 z" />
      <path
         inkscape:connector-curvature="0"
         id="path952"
         style="font-style:normal;font-variant:normal;font-weight:300;font-stretch:normal;font-size:10.5833px;line-height:1.25;font-family:Roboto;-inkscape-font-specification:'Roboto weight=255';letter-spacing:0px;word-spacing:0px;fill:#000000;fill-opacity:1;stroke:none;stroke-width:0.264583"
         d="m 20.352778,28.497969 q -0.558105,0.81132 -1.782837,0.81132 -0.894002,0 -1.35909,-0.51677 -0.465088,-0.52193 -0.475423,-1.53995 v -3.63803 h 0.61495 v 3.56051 q 0,1.5968 1.29191,1.5968 1.343588,0 1.700155,-1.11104 v -4.04627 h 0.620117 v 5.59139 h -0.599447 z" />
      <path
         inkscape:connector-curvature="0"
         id="path954"
         style="font-style:normal;font-variant:normal;font-weight:300;font-stretch:normal;font-size:10.5833px;line-height:1.25;font-family:Roboto;-inkscape-font-specification:'Roboto weight=255';letter-spacing:0px;word-spacing:0px;fill:#000000;fill-opacity:1;stroke:none;stroke-width:0.264583"
         d="m 23.262159,29.205929 h -0.62011 v -7.9375 h 0.62011 z" />
      <path
         inkscape:connector-curvature="0"
         id="path956"
         style="font-style:normal;font-variant:normal;font-weight:300;font-stretch:normal;font-size:10.5833px;line-height:1.25;font-family:Roboto;-inkscape-font-specification:'Roboto weight=255';letter-spacing:0px;word-spacing:0px;fill:#000000;fill-opacity:1;stroke:none;stroke-width:0.264583"
         d="m 25.902829,22.183109 v 1.43143 h 1.15755 v 0.50643 h -1.15755 v 3.72587 q 0,0.46509 0.16536,0.69247 0.17053,0.22738 0.56327,0.22738 0.15503,0 0.50127,-0.0517 l 0.0258,0.50643 q -0.24287,0.0879 -0.66145,0.0879 -0.63562,0 -0.92501,-0.3669 -0.28939,-0.37207 -0.28939,-1.09037 v -3.73108 h -1.02836 v -0.50643 h 1.02836 v -1.43144 z" />
      <path
         inkscape:connector-curvature="0"
         id="path958"
         style="font-style:normal;font-variant:normal;font-weight:300;font-stretch:normal;font-size:10.5833px;line-height:1.25;font-family:Roboto;-inkscape-font-specification:'Roboto weight=255';letter-spacing:0px;word-spacing:0px;fill:#000000;fill-opacity:1;stroke:none;stroke-width:0.264583"
         d="m 29.034419,29.205929 h -0.62012 v -5.59139 h 0.62012 z m -0.72864,-7.20886 q 0,-0.1757 0.11369,-0.29455 0.11369,-0.12403 0.31006,-0.12403 0.19637,0 0.31006,0.12403 0.11885,0.11885 0.11885,0.29455 0,0.1757 -0.11885,0.29456 -0.11369,0.11885 -0.31006,0.11885 -0.19637,0 -0.31006,-0.11885 -0.11369,-0.11886 -0.11369,-0.29456 z" />
      <path
         inkscape:connector-curvature="0"
         id="path960"
         style="font-style:normal;font-variant:normal;font-weight:300;font-stretch:normal;font-size:10.5833px;line-height:1.25;font-family:Roboto;-inkscape-font-specification:'Roboto weight=255';letter-spacing:0px;word-spacing:0px;fill:#000000;fill-opacity:1;stroke:none;stroke-width:0.264583"
         d="m 36.186439,26.859829 q -0.12919,1.18855 -0.85266,1.81901 -0.71831,0.63045 -1.9172,0.63045 -0.83716,0 -1.48311,-0.41858 -0.64079,-0.41858 -0.99219,-1.18339 -0.3514,-0.76998 -0.35657,-1.757 v -0.97669 q 0,-1.00252 0.3514,-1.77766 0.3514,-0.77515 1.00769,-1.19373 0.66146,-0.42375 1.51929,-0.42375 1.20923,0 1.90686,0.65629 0.7028,0.65113 0.81649,1.80351 h -0.64079 q -0.23771,-1.91719 -2.08256,-1.91719 -1.02319,0 -1.63297,0.76481 -0.60462,0.76481 -0.60462,2.11356 v 0.91984 q 0,1.30225 0.58911,2.0774 0.59428,0.77514 1.60197,0.77514 0.99736,0 1.50379,-0.47542 0.50642,-0.48059 0.62528,-1.4366 z" />
      <path
         inkscape:connector-curvature="0"
         id="path962"
         style="font-style:normal;font-variant:normal;font-weight:300;font-stretch:normal;font-size:10.5833px;line-height:1.25;font-family:Roboto;-inkscape-font-specification:'Roboto weight=255';letter-spacing:0px;word-spacing:0px;fill:#000000;fill-opacity:1;stroke:none;stroke-width:0.264583"
         d="m 41.793329,27.097539 h -3.41581 l -0.77515,2.10839 h -0.66662 l 2.84737,-7.52408 h 0.60461 l 2.84737,7.52408 h -0.66146 z m -3.21944,-0.54261 h 3.0179 l -1.50895,-4.09794 z" />
      <path
         inkscape:connector-curvature="0"
         id="path964"
         style="font-style:normal;font-variant:normal;font-weight:300;font-stretch:normal;font-size:10.5833px;line-height:1.25;font-family:Roboto;-inkscape-font-specification:'Roboto weight=255';letter-spacing:0px;word-spacing:0px;fill:#000000;fill-opacity:1;stroke:none;stroke-width:0.264583"
         d="m 48.599119,27.355919 q 0,-0.62529 -0.43925,-0.98702 -0.43925,-0.3669 -1.60714,-0.69247 -1.16789,-0.33073 -1.70532,-0.7183 -0.76481,-0.54777 -0.76481,-1.4366 0,-0.863 0.70796,-1.40043 0.71314,-0.54261 1.81901,-0.54261 0.74931,0 1.33842,0.28939 0.59428,0.28939 0.91984,0.80615 0.32557,0.51677 0.32557,1.15239 h -0.64079 q 0,-0.76998 -0.5271,-1.23507 -0.5271,-0.47025 -1.41594,-0.47025 -0.86299,0 -1.37459,0.38757 -0.5116,0.3824 -0.5116,1.00252 0,0.57361 0.45992,0.93535 0.45992,0.36173 1.47278,0.64078 1.01286,0.27389 1.53479,0.57361 0.52193,0.29456 0.78548,0.70797 0.26355,0.41341 0.26355,0.97668 0,0.88884 -0.71313,1.42627 -0.70797,0.53744 -1.87069,0.53744 -0.79581,0 -1.46244,-0.28422 -0.66146,-0.28422 -1.00769,-0.79582 -0.34107,-0.5116 -0.34107,-1.17306 h 0.63562 q 0,0.79582 0.59428,1.25574 0.59428,0.45992 1.5813,0.45992 0.8785,0 1.41077,-0.38757 0.53227,-0.38757 0.53227,-1.02836 z" />
      <path
         inkscape:connector-curvature="0"
         id="path966"
         style="font-style:normal;font-variant:normal;font-weight:300;font-stretch:normal;font-size:10.5833px;line-height:1.25;font-family:Roboto;-inkscape-font-specification:'Roboto weight=255';letter-spacing:0px;word-spacing:0px;fill:#000000;fill-opacity:1;stroke:none;stroke-width:0.264583"
         d="m 55.714959,22.224449 h -2.57865 v 6.98148 h -0.63562 v -6.98148 h -2.57349 v -0.5426 h 5.78776 z" />
    </g>
    <g
       aria-label="Multiscale Thermal-related Urban Climate Analysis and Simulation Tool"
       id="text974"
       style="font-size:10.5833px;line-height:1.25;font-family:Roboto;-inkscape-font-specification:Roboto;letter-spacing:0px;word-spacing:0px;stroke-width:0.264583">
      <g
         id="g691">
        <path
           d="m 1.4169265,32.349044 h 0.2873207 l 0.8578281,2.28823 0.8619621,-2.28823 h 0.2852537 v 3.086114 H 3.4984514 v -2.70991 L 2.7047021,34.841913 H 2.4194484 L 1.6277662,32.725248 v 2.70991 H 1.4169265 Z"
           style="font-weight:300;font-size:4.23333px;-inkscape-font-specification:'Roboto Light'"
           id="path457" />
        <path
           d="m 4.8441047,34.517385 v -1.397329 h 0.1901691 v 1.384927 q 0,0.450618 0.1446939,0.634586 0.1446939,0.183968 0.4258135,0.183968 0.3286618,0 0.5622391,-0.198438 0.2356443,-0.200504 0.2356443,-0.696597 v -1.308446 h 0.1901691 v 2.315102 H 6.4026646 v -0.434082 q -0.1012857,0.21084 -0.2666502,0.322461 -0.2439125,0.167431 -0.5395015,0.167431 -0.3431312,0 -0.5477697,-0.233577 -0.2046385,-0.23151 -0.2046385,-0.740006 z"
           style="font-weight:300;font-size:4.23333px;-inkscape-font-specification:'Roboto Light'"
           id="path459" />
        <path
           d="m 7.5519476,32.218819 h 0.1901691 v 3.216339 H 7.5519476 Z"
           style="font-weight:300;font-size:4.23333px;-inkscape-font-specification:'Roboto Light'"
           id="path461" />
        <path
           d="m 8.9286061,32.462732 v 0.657324 h 0.7834141 v 0.16123 H 8.9286061 v 1.391128 q 0,0.264583 0.068213,0.370003 0.1405598,0.23151 0.409277,0.23151 h 0.3059242 v 0.161231 H 9.4164313 q -0.2831867,0 -0.481624,-0.165365 Q 8.73637,35.104429 8.73637,34.672414 V 33.281286 H 8.4593845 v -0.16123 H 8.73637 v -0.657324 z"
           style="font-weight:300;font-size:4.23333px;-inkscape-font-specification:'Roboto Light'"
           id="path463" />
        <path
           d="m 10.383814,33.120056 h 0.190169 v 2.315102 h -0.190169 z m 0,-0.901237 h 0.190169 v 0.260449 h -0.190169 z"
           style="font-weight:300;font-size:4.23333px;-inkscape-font-specification:'Roboto Light'"
           id="path465" />
        <path
           d="m 12.874615,33.188268 v 0.208773 q -0.200504,-0.111621 -0.250113,-0.124023 -0.144694,-0.03514 -0.359668,-0.04134 -0.326595,0 -0.51263,0.130224 -0.142627,0.107487 -0.142627,0.367936 0,0.1757 0.134359,0.274918 0.142627,0.107487 0.40721,0.165365 l 0.130224,0.02894 q 0.328662,0.07235 0.498161,0.204638 0.19637,0.150895 0.206705,0.392741 0,0.328661 -0.194303,0.514696 -0.206705,0.183968 -0.665592,0.183968 -0.256315,0 -0.388606,-0.03514 -0.159163,-0.04547 -0.334863,-0.109554 v -0.237711 q 0.252181,0.144694 0.326595,0.165365 0.204638,0.05374 0.405143,0.05374 0.334863,0 0.494026,-0.138493 0.16123,-0.14056 0.16123,-0.367936 0,-0.190169 -0.107487,-0.276985 -0.155029,-0.124023 -0.494026,-0.202572 l -0.132292,-0.03101 q -0.291454,-0.06821 -0.444417,-0.192237 -0.192236,-0.155029 -0.192236,-0.376204 0,-0.363801 0.231511,-0.522965 0.23151,-0.159163 0.56844,-0.159163 0.287321,0 0.396874,0.03101 0.132292,0.03721 0.258382,0.09302 z"
           style="font-weight:300;font-size:4.23333px;-inkscape-font-specification:'Roboto Light'"
           id="path467" />
        <path
           d="m 15.355082,33.231677 v 0.202571 q -0.171566,-0.10542 -0.283187,-0.142627 -0.192236,-0.05994 -0.367935,-0.05994 -0.500228,0 -0.717269,0.256314 -0.217041,0.256315 -0.217041,0.791683 0,0.539501 0.217041,0.795816 0.217041,0.256315 0.717269,0.256315 0.165364,0 0.326594,-0.04548 0.163298,-0.04341 0.324528,-0.132292 v 0.192236 q -0.159163,0.07441 -0.328662,0.111621 -0.171565,0.03721 -0.338997,0.03721 -0.508496,0 -0.808219,-0.274918 -0.299723,-0.276985 -0.299723,-0.94051 0,-0.663525 0.299723,-0.940511 0.299723,-0.274918 0.808219,-0.274918 0.165365,0 0.3514,0.04754 0.186035,0.04548 0.316259,0.11989 z"
           style="font-weight:300;font-size:4.23333px;-inkscape-font-specification:'Roboto Light'"
           id="path469" />
        <path
           d="m 17.023196,34.128779 q -0.458886,0 -0.661457,0.163297 -0.202572,0.163297 -0.202572,0.47749 0,0.305924 0.167432,0.434082 0.167431,0.128157 0.396874,0.128157 0.434082,0 0.624251,-0.367936 0.192236,-0.367936 0.192236,-0.692464 v -0.142626 z m 0.709001,-0.01447 v 1.320849 h -0.188103 v -0.628385 q -0.159163,0.460953 -0.421679,0.587044 -0.208772,0.101285 -0.415478,0.101285 -0.345198,0 -0.543636,-0.183968 -0.198437,-0.186035 -0.198437,-0.545702 0,-0.359668 0.258382,-0.574642 0.258382,-0.217041 0.845426,-0.217041 h 0.471288 v -0.03721 q 0,-0.307991 -0.175699,-0.506428 -0.173633,-0.198437 -0.574642,-0.198437 -0.198437,0 -0.405143,0.07441 -0.132291,0.04754 -0.343131,0.192236 v -0.204639 q 0.183968,-0.113688 0.343131,-0.16123 0.231511,-0.06821 0.444417,-0.06821 0.409277,0 0.67386,0.248047 0.229444,0.212906 0.229444,0.802017 z"
           style="font-weight:300;font-size:4.23333px;-inkscape-font-specification:'Roboto Light'"
           id="path471" />
        <path
           d="m 18.69131,32.218819 h 0.190169 v 3.216339 H 18.69131 Z"
           style="font-weight:300;font-size:4.23333px;-inkscape-font-specification:'Roboto Light'"
           id="path473" />
        <path
           d="m 21.672005,34.182522 v 0.119889 h -1.756998 q 0,0.558105 0.217041,0.781347 0.239779,0.248047 0.713134,0.248047 0.124024,0 0.328662,-0.05374 0.206706,-0.05374 0.409277,-0.161231 v 0.200505 q -0.204638,0.08682 -0.419612,0.132291 -0.214974,0.04548 -0.341064,0.04548 -0.535368,0 -0.806152,-0.289387 -0.293522,-0.307992 -0.293522,-0.903304 0,-0.618049 0.268717,-0.921906 0.274919,-0.31626 0.764811,-0.31626 0.454752,0 0.686262,0.299723 0.229444,0.314193 0.229444,0.818554 z m -0.192237,-0.04134 q 0,-0.487825 -0.219108,-0.711067 -0.183967,-0.198437 -0.500227,-0.198437 -0.345198,0 -0.578776,0.206705 -0.214973,0.192236 -0.258381,0.702799 z"
           style="font-weight:300;font-size:4.23333px;-inkscape-font-specification:'Roboto Light'"
           id="path475" />
        <path
           d="m 23.431068,32.349044 h 2.399851 v 0.169498 H 24.73538 v 2.916616 h -0.208773 v -2.916616 h -1.095539 z"
           style="font-weight:300;font-size:4.23333px;-inkscape-font-specification:'Roboto Light'"
           id="path477" />
        <path
           d="m 28.152224,34.037828 v 1.39733 h -0.190169 v -1.384927 q 0,-0.446484 -0.150895,-0.632519 -0.150895,-0.186035 -0.45682,-0.186035 -0.351399,0 -0.556038,0.206705 -0.204638,0.206706 -0.204638,0.68833 v 1.308446 h -0.190169 v -3.216339 h 0.190169 v 1.329117 q 0.06615,-0.177767 0.235644,-0.316259 0.202572,-0.167432 0.570508,-0.167432 0.343131,0 0.547769,0.24598 0.204639,0.248046 0.204639,0.727603 z"
           style="font-weight:300;font-size:4.23333px;-inkscape-font-specification:'Roboto Light'"
           id="path479" />
        <path
           d="m 30.891071,34.182522 v 0.119889 h -1.756997 q 0,0.558105 0.217041,0.781347 0.239778,0.248047 0.713134,0.248047 0.124023,0 0.328662,-0.05374 0.206705,-0.05374 0.409277,-0.161231 v 0.200505 q -0.204639,0.08682 -0.419612,0.132291 -0.214974,0.04548 -0.341065,0.04548 -0.535367,0 -0.806151,-0.289387 -0.293522,-0.307992 -0.293522,-0.903304 0,-0.618049 0.268717,-0.921906 0.274918,-0.31626 0.764811,-0.31626 0.454752,0 0.686262,0.299723 0.229443,0.314193 0.229443,0.818554 z m -0.192236,-0.04134 q 0,-0.487825 -0.219108,-0.711067 -0.183968,-0.198437 -0.500227,-0.198437 -0.345199,0 -0.578776,0.206705 -0.214974,0.192236 -0.258382,0.702799 z"
           style="font-weight:300;font-size:4.23333px;-inkscape-font-specification:'Roboto Light'"
           id="path481" />
        <path
           d="m 32.947792,33.283353 q -0.04548,-0.02274 -0.124024,-0.03927 -0.07028,-0.0124 -0.177766,-0.0124 -0.3514,0 -0.58291,0.260449 -0.181901,0.210839 -0.181901,0.723469 v 1.219563 h -0.186035 v -2.315102 h 0.186035 v 0.434081 q 0.09302,-0.186035 0.260449,-0.314192 0.23151,-0.1757 0.545703,-0.1757 0.08062,0 0.14056,0.0062 0.06201,0 0.119889,0.01447 z"
           style="font-weight:300;font-size:4.23333px;-inkscape-font-specification:'Roboto Light'"
           id="path483" />
        <path
           d="m 35.023117,33.624417 q 0.107487,-0.279052 0.338997,-0.421679 0.219108,-0.138493 0.520898,-0.138493 0.30179,0 0.483691,0.212907 0.183968,0.210839 0.183968,0.760676 v 1.39733 h -0.188102 v -1.384927 q 0,-0.479557 -0.132292,-0.649056 -0.132291,-0.169498 -0.351399,-0.169498 -0.318327,0 -0.562239,0.19637 -0.266651,0.212907 -0.266651,0.698665 v 1.308446 h -0.190169 v -1.384927 q 0,-0.463021 -0.128157,-0.640788 -0.128158,-0.177766 -0.355534,-0.177766 -0.318326,0 -0.562239,0.198437 -0.26665,0.212907 -0.26665,0.696598 v 1.308446 H 33.35707 v -2.315102 h 0.190169 v 0.434081 q 0.101286,-0.227376 0.314193,-0.359667 0.214973,-0.130225 0.527099,-0.130225 0.202571,0 0.390673,0.136426 0.144694,0.10542 0.243913,0.423746 z"
           style="font-weight:300;font-size:4.23333px;-inkscape-font-specification:'Roboto Light'"
           id="path485" />
        <path
           d="m 38.406886,34.128779 q -0.458886,0 -0.661457,0.163297 -0.202572,0.163297 -0.202572,0.47749 0,0.305924 0.167432,0.434082 0.167431,0.128157 0.396874,0.128157 0.434082,0 0.624251,-0.367936 0.192236,-0.367936 0.192236,-0.692464 v -0.142626 z m 0.709,-0.01447 v 1.320849 h -0.188102 v -0.628385 q -0.159163,0.460953 -0.421679,0.587044 -0.208773,0.101285 -0.415478,0.101285 -0.345198,0 -0.543636,-0.183968 -0.198437,-0.186035 -0.198437,-0.545702 0,-0.359668 0.258382,-0.574642 0.258382,-0.217041 0.845426,-0.217041 h 0.471288 v -0.03721 q 0,-0.307991 -0.175699,-0.506428 -0.173633,-0.198437 -0.574642,-0.198437 -0.198437,0 -0.405143,0.07441 -0.132291,0.04754 -0.343131,0.192236 v -0.204639 q 0.183968,-0.113688 0.343131,-0.16123 0.23151,-0.06821 0.444417,-0.06821 0.409277,0 0.67386,0.248047 0.229443,0.212906 0.229443,0.802017 z"
           style="font-weight:300;font-size:4.23333px;-inkscape-font-specification:'Roboto Light'"
           id="path487" />
        <path
           d="m 40.075,32.218819 h 0.190169 v 3.216339 H 40.075 Z"
           style="font-weight:300;font-size:4.23333px;-inkscape-font-specification:'Roboto Light'"
           id="path489" />
        <path
           d="m 40.978304,34.19079 h 1.114143 v 0.169499 h -1.114143 z"
           style="font-weight:300;font-size:4.23333px;-inkscape-font-specification:'Roboto Light'"
           id="path491" />
        <path
           d="m 44.035478,33.283353 q -0.04547,-0.02274 -0.124023,-0.03927 -0.07028,-0.0124 -0.177767,-0.0124 -0.351399,0 -0.58291,0.260449 -0.1819,0.210839 -0.1819,0.723469 v 1.219563 h -0.186035 v -2.315102 h 0.186035 v 0.434081 q 0.09302,-0.186035 0.260449,-0.314192 0.23151,-0.1757 0.545702,-0.1757 0.08061,0 0.14056,0.0062 0.06201,0 0.119889,0.01447 z"
           style="font-weight:300;font-size:4.23333px;-inkscape-font-specification:'Roboto Light'"
           id="path493" />
        <path
           d="m 46.23069,34.182522 v 0.119889 h -1.756997 q 0,0.558105 0.21704,0.781347 0.239779,0.248047 0.713135,0.248047 0.124023,0 0.328661,-0.05374 0.206706,-0.05374 0.409277,-0.161231 v 0.200505 q -0.204638,0.08682 -0.419612,0.132291 -0.214974,0.04548 -0.341064,0.04548 -0.535367,0 -0.806152,-0.289387 -0.293522,-0.307992 -0.293522,-0.903304 0,-0.618049 0.268718,-0.921906 0.274918,-0.31626 0.76481,-0.31626 0.454752,0 0.686263,0.299723 0.229443,0.314193 0.229443,0.818554 z m -0.192236,-0.04134 q 0,-0.487825 -0.219108,-0.711067 -0.183968,-0.198437 -0.500228,-0.198437 -0.345198,0 -0.578775,0.206705 -0.214974,0.192236 -0.258382,0.702799 z"
           style="font-weight:300;font-size:4.23333px;-inkscape-font-specification:'Roboto Light'"
           id="path495" />
        <path
           d="m 47.030643,32.218819 h 0.190169 v 3.216339 h -0.190169 z"
           style="font-weight:300;font-size:4.23333px;-inkscape-font-specification:'Roboto Light'"
           id="path497" />
        <path
           d="m 49.132839,34.128779 q -0.458887,0 -0.661458,0.163297 -0.202572,0.163297 -0.202572,0.47749 0,0.305924 0.167432,0.434082 0.167431,0.128157 0.396874,0.128157 0.434082,0 0.624251,-0.367936 0.192236,-0.367936 0.192236,-0.692464 v -0.142626 z m 0.709,-0.01447 v 1.320849 h -0.188102 v -0.628385 q -0.159164,0.460953 -0.42168,0.587044 -0.208772,0.101285 -0.415478,0.101285 -0.345198,0 -0.543636,-0.183968 -0.198437,-0.186035 -0.198437,-0.545702 0,-0.359668 0.258382,-0.574642 0.258382,-0.217041 0.845426,-0.217041 h 0.471288 v -0.03721 q 0,-0.307991 -0.175699,-0.506428 -0.173633,-0.198437 -0.574642,-0.198437 -0.198437,0 -0.405143,0.07441 -0.132291,0.04754 -0.343131,0.192236 v -0.204639 q 0.183968,-0.113688 0.343131,-0.16123 0.231511,-0.06821 0.444417,-0.06821 0.409277,0 0.67386,0.248047 0.229444,0.212906 0.229444,0.802017 z"
           style="font-weight:300;font-size:4.23333px;-inkscape-font-specification:'Roboto Light'"
           id="path499" />
        <path
           d="m 51.001456,32.462732 v 0.657324 h 0.783414 v 0.16123 h -0.783414 v 1.391128 q 0,0.264583 0.06821,0.370003 0.14056,0.23151 0.409277,0.23151 h 0.305924 v 0.161231 h -0.295589 q -0.283186,0 -0.481623,-0.165365 -0.198438,-0.165364 -0.198438,-0.597379 v -1.391128 h -0.276985 v -0.16123 h 0.276985 v -0.657324 z"
           style="font-weight:300;font-size:4.23333px;-inkscape-font-specification:'Roboto Light'"
           id="path501" />
        <path
           d="m 54.265335,34.182522 v 0.119889 h -1.756997 q 0,0.558105 0.217041,0.781347 0.239778,0.248047 0.713134,0.248047 0.124023,0 0.328662,-0.05374 0.206705,-0.05374 0.409277,-0.161231 v 0.200505 q -0.204639,0.08682 -0.419613,0.132291 -0.214974,0.04548 -0.341064,0.04548 -0.535367,0 -0.806152,-0.289387 -0.293521,-0.307992 -0.293521,-0.903304 0,-0.618049 0.268717,-0.921906 0.274918,-0.31626 0.76481,-0.31626 0.454753,0 0.686263,0.299723 0.229443,0.314193 0.229443,0.818554 z m -0.192236,-0.04134 q 0,-0.487825 -0.219108,-0.711067 -0.183968,-0.198437 -0.500228,-0.198437 -0.345198,0 -0.578775,0.206705 -0.214974,0.192236 -0.258382,0.702799 z"
           style="font-weight:300;font-size:4.23333px;-inkscape-font-specification:'Roboto Light'"
           id="path503" />
        <path
           d="m 56.603177,33.649222 v -1.430403 h 0.186035 v 3.216339 h -0.186035 v -0.525032 q -0.130225,0.30179 -0.283187,0.413411 -0.233577,0.171565 -0.440282,0.171565 -0.411345,0 -0.684196,-0.334863 -0.272851,-0.334863 -0.272851,-0.880565 0,-0.545703 0.272851,-0.880566 0.272851,-0.334863 0.684196,-0.334863 0.206705,0 0.440282,0.171566 0.152962,0.111621 0.283187,0.413411 z m -1.240233,-0.1757 q -0.239779,0.241846 -0.239779,0.806152 0,0.564306 0.239779,0.806151 0.237711,0.241846 0.502294,0.241846 0.258382,0 0.498161,-0.241846 0.237711,-0.241845 0.237711,-0.806151 0,-0.564306 -0.237711,-0.806152 -0.239779,-0.241845 -0.498161,-0.241845 -0.264583,0 -0.502294,0.241845 z"
           style="font-weight:300;font-size:4.23333px;-inkscape-font-specification:'Roboto Light'"
           id="path505" />
        <path
           d="m 59.091912,32.349044 h 0.206705 v 1.874819 q 0,0.587044 0.206706,0.845426 0.204639,0.256315 0.663525,0.256315 0.456819,0 0.661458,-0.256315 0.206705,-0.258382 0.206705,-0.845426 v -1.874819 h 0.206706 v 1.926496 q 0,0.60358 -0.272852,0.911571 -0.270784,0.307991 -0.802017,0.307991 -0.5333,0 -0.804085,-0.307991 -0.272851,-0.307991 -0.272851,-0.911571 z"
           style="font-weight:300;font-size:4.23333px;-inkscape-font-specification:'Roboto Light'"
           id="path507" />
        <path
           d="m 63.453397,33.283353 q -0.04548,-0.02274 -0.124023,-0.03927 -0.07028,-0.0124 -0.177767,-0.0124 -0.351399,0 -0.582909,0.260449 -0.181901,0.210839 -0.181901,0.723469 v 1.219563 h -0.186035 v -2.315102 h 0.186035 v 0.434081 q 0.09302,-0.186035 0.260449,-0.314192 0.23151,-0.1757 0.545702,-0.1757 0.08062,0 0.14056,0.0062 0.06201,0 0.119889,0.01447 z"
           style="font-weight:300;font-size:4.23333px;-inkscape-font-specification:'Roboto Light'"
           id="path509" />
        <path
           d="m 65.367493,35.085825 q 0.239779,-0.241845 0.239779,-0.806151 0,-0.564306 -0.239779,-0.806152 -0.237711,-0.241845 -0.502294,-0.241845 -0.258382,0 -0.498161,0.241845 -0.237711,0.241846 -0.237711,0.806152 0,0.564306 0.237711,0.806151 0.239779,0.241846 0.498161,0.241846 0.264583,0 0.502294,-0.241846 z M 64.12726,33.649222 q 0.130225,-0.30179 0.283187,-0.413411 0.233577,-0.171566 0.440282,-0.171566 0.411345,0 0.684196,0.334863 0.272851,0.334863 0.272851,0.880566 0,0.545702 -0.272851,0.880565 -0.272851,0.334863 -0.684196,0.334863 -0.206705,0 -0.440282,-0.171565 -0.152962,-0.111621 -0.283187,-0.413411 v 0.525032 h -0.186035 v -3.216339 h 0.186035 z"
           style="font-weight:300;font-size:4.23333px;-inkscape-font-specification:'Roboto Light'"
           id="path511" />
        <path
           d="m 67.5503,34.128779 q -0.458886,0 -0.661458,0.163297 -0.202571,0.163297 -0.202571,0.47749 0,0.305924 0.167431,0.434082 0.167432,0.128157 0.396875,0.128157 0.434082,0 0.624251,-0.367936 0.192236,-0.367936 0.192236,-0.692464 v -0.142626 z m 0.709,-0.01447 v 1.320849 h -0.188102 v -0.628385 q -0.159163,0.460953 -0.421679,0.587044 -0.208773,0.101285 -0.415479,0.101285 -0.345198,0 -0.543635,-0.183968 -0.198438,-0.186035 -0.198438,-0.545702 0,-0.359668 0.258382,-0.574642 0.258382,-0.217041 0.845426,-0.217041 h 0.471289 v -0.03721 q 0,-0.307991 -0.1757,-0.506428 -0.173633,-0.198437 -0.574641,-0.198437 -0.198438,0 -0.405143,0.07441 -0.132292,0.04754 -0.343131,0.192236 v -0.204639 q 0.183967,-0.113688 0.343131,-0.16123 0.23151,-0.06821 0.444417,-0.06821 0.409277,0 0.67386,0.248047 0.229443,0.212906 0.229443,0.802017 z"
           style="font-weight:300;font-size:4.23333px;-inkscape-font-specification:'Roboto Light'"
           id="path513" />
        <path
           d="m 70.967142,34.037828 v 1.39733 h -0.190169 v -1.384927 q 0,-0.450619 -0.144694,-0.634586 -0.144694,-0.183968 -0.425813,-0.183968 -0.328662,0 -0.562239,0.198437 -0.235645,0.200504 -0.235645,0.696598 v 1.308446 h -0.190169 v -2.315102 h 0.190169 v 0.434081 q 0.101286,-0.210839 0.266651,-0.32246 0.243912,-0.167432 0.539501,-0.167432 0.343131,0 0.54777,0.233577 0.204638,0.231511 0.204638,0.740006 z"
           style="font-weight:300;font-size:4.23333px;-inkscape-font-specification:'Roboto Light'"
           id="path515" />
        <path
           d="m 75.493997,32.605359 v 0.237711 q -0.21084,-0.192236 -0.448551,-0.285254 -0.239779,-0.09508 -0.508496,-0.09508 -0.582909,0 -0.890901,0.367936 -0.310058,0.367936 -0.310058,1.064533 0,0.696598 0.310058,1.066601 0.307992,0.370003 0.890901,0.370003 0.268717,0 0.508496,-0.09509 0.237711,-0.09715 0.448551,-0.289387 v 0.250113 q -0.219108,0.148828 -0.465088,0.223242 -0.243912,0.07441 -0.516763,0.07441 -0.649056,0 -1.021126,-0.42788 -0.37207,-0.429948 -0.37207,-1.172021 0,-0.74414 0.37207,-1.17202 0.37207,-0.429948 1.021126,-0.429948 0.276985,0 0.520898,0.07855 0.245979,0.07648 0.460953,0.233578 z"
           style="font-weight:300;font-size:4.23333px;-inkscape-font-specification:'Roboto Light'"
           id="path517" />
        <path
           d="m 76.202994,32.218819 h 0.190169 v 3.216339 h -0.190169 z"
           style="font-weight:300;font-size:4.23333px;-inkscape-font-specification:'Roboto Light'"
           id="path519" />
        <path
           d="m 77.375015,33.120056 h 0.190169 v 2.315102 h -0.190169 z m 0,-0.901237 h 0.190169 v 0.260449 h -0.190169 z"
           style="font-weight:300;font-size:4.23333px;-inkscape-font-specification:'Roboto Light'"
           id="path521" />
        <path
           d="m 80.221351,33.624417 q 0.107487,-0.279052 0.338997,-0.421679 0.219108,-0.138493 0.520898,-0.138493 0.301791,0 0.483691,0.212907 0.183968,0.210839 0.183968,0.760676 v 1.39733 h -0.188102 v -1.384927 q 0,-0.479557 -0.132291,-0.649056 -0.132292,-0.169498 -0.3514,-0.169498 -0.318326,0 -0.562239,0.19637 -0.26665,0.212907 -0.26665,0.698665 v 1.308446 h -0.190169 v -1.384927 q 0,-0.463021 -0.128158,-0.640788 -0.128157,-0.177766 -0.355533,-0.177766 -0.318327,0 -0.562239,0.198437 -0.26665,0.212907 -0.26665,0.696598 v 1.308446 h -0.190169 v -2.315102 h 0.190169 v 0.434081 q 0.101285,-0.227376 0.314192,-0.359667 0.214974,-0.130225 0.527099,-0.130225 0.202572,0 0.390674,0.136426 0.144694,0.10542 0.243912,0.423746 z"
           style="font-weight:300;font-size:4.23333px;-inkscape-font-specification:'Roboto Light'"
           id="path523" />
        <path
           d="m 83.605125,34.128779 q -0.458887,0 -0.661458,0.163297 -0.202571,0.163297 -0.202571,0.47749 0,0.305924 0.167431,0.434082 0.167432,0.128157 0.396875,0.128157 0.434081,0 0.62425,-0.367936 0.192237,-0.367936 0.192237,-0.692464 v -0.142626 z m 0.709,-0.01447 v 1.320849 h -0.188102 v -0.628385 q -0.159164,0.460953 -0.42168,0.587044 -0.208772,0.101285 -0.415478,0.101285 -0.345198,0 -0.543635,-0.183968 -0.198438,-0.186035 -0.198438,-0.545702 0,-0.359668 0.258382,-0.574642 0.258382,-0.217041 0.845426,-0.217041 h 0.471289 v -0.03721 q 0,-0.307991 -0.1757,-0.506428 -0.173633,-0.198437 -0.574642,-0.198437 -0.198437,0 -0.405142,0.07441 -0.132292,0.04754 -0.343132,0.192236 v -0.204639 q 0.183968,-0.113688 0.343132,-0.16123 0.23151,-0.06821 0.444417,-0.06821 0.409277,0 0.67386,0.248047 0.229443,0.212906 0.229443,0.802017 z"
           style="font-weight:300;font-size:4.23333px;-inkscape-font-specification:'Roboto Light'"
           id="path525" />
        <path
           d="m 85.473743,32.462732 v 0.657324 h 0.783414 v 0.16123 h -0.783414 v 1.391128 q 0,0.264583 0.06821,0.370003 0.14056,0.23151 0.409277,0.23151 h 0.305925 v 0.161231 h -0.295589 q -0.283187,0 -0.481624,-0.165365 -0.198438,-0.165364 -0.198438,-0.597379 v -1.391128 h -0.276985 v -0.16123 h 0.276985 v -0.657324 z"
           style="font-weight:300;font-size:4.23333px;-inkscape-font-specification:'Roboto Light'"
           id="path527" />
        <path
           d="m 88.737621,34.182522 v 0.119889 h -1.756997 q 0,0.558105 0.217041,0.781347 0.239778,0.248047 0.713134,0.248047 0.124023,0 0.328662,-0.05374 0.206705,-0.05374 0.409277,-0.161231 v 0.200505 q -0.204639,0.08682 -0.419613,0.132291 -0.214973,0.04548 -0.341064,0.04548 -0.535367,0 -0.806151,-0.289387 -0.293522,-0.307992 -0.293522,-0.903304 0,-0.618049 0.268717,-0.921906 0.274918,-0.31626 0.764811,-0.31626 0.454752,0 0.686262,0.299723 0.229443,0.314193 0.229443,0.818554 z m -0.192236,-0.04134 q 0,-0.487825 -0.219108,-0.711067 -0.183968,-0.198437 -0.500227,-0.198437 -0.345199,0 -0.578776,0.206705 -0.214974,0.192236 -0.258382,0.702799 z"
           style="font-weight:300;font-size:4.23333px;-inkscape-font-specification:'Roboto Light'"
           id="path529" />
        <path
           d="m 91.84027,32.557816 -0.661457,1.736327 h 1.31258 z m -0.132291,-0.208772 h 0.270784 l 1.180289,3.086114 h -0.235645 l -0.367935,-0.969449 h -1.440738 l -0.365869,0.969449 h -0.219108 z"
           style="font-weight:300;font-size:4.23333px;-inkscape-font-specification:'Roboto Light'"
           id="path531" />
        <path
           d="m 95.527903,34.037828 v 1.39733 h -0.190169 v -1.384927 q 0,-0.450619 -0.144694,-0.634586 -0.144694,-0.183968 -0.425814,-0.183968 -0.328661,0 -0.562239,0.198437 -0.235644,0.200504 -0.235644,0.696598 v 1.308446 h -0.190169 v -2.315102 h 0.190169 v 0.434081 q 0.101286,-0.210839 0.26665,-0.32246 0.243913,-0.167432 0.539502,-0.167432 0.343131,0 0.547769,0.233577 0.204639,0.231511 0.204639,0.740006 z"
           style="font-weight:300;font-size:4.23333px;-inkscape-font-specification:'Roboto Light'"
           id="path533" />
        <path
           d="m 97.388252,34.128779 q -0.458887,0 -0.661458,0.163297 -0.202572,0.163297 -0.202572,0.47749 0,0.305924 0.167432,0.434082 0.167431,0.128157 0.396875,0.128157 0.434081,0 0.62425,-0.367936 0.192236,-0.367936 0.192236,-0.692464 v -0.142626 z m 0.709,-0.01447 v 1.320849 H 97.90915 v -0.628385 q -0.159164,0.460953 -0.42168,0.587044 -0.208772,0.101285 -0.415478,0.101285 -0.345198,0 -0.543636,-0.183968 -0.198437,-0.186035 -0.198437,-0.545702 0,-0.359668 0.258382,-0.574642 0.258382,-0.217041 0.845426,-0.217041 h 0.471288 v -0.03721 q 0,-0.307991 -0.175699,-0.506428 -0.173633,-0.198437 -0.574642,-0.198437 -0.198437,0 -0.405143,0.07441 -0.132291,0.04754 -0.343131,0.192236 v -0.204639 q 0.183968,-0.113688 0.343131,-0.16123 0.231511,-0.06821 0.444417,-0.06821 0.409277,0 0.67386,0.248047 0.229444,0.212906 0.229444,0.802017 z"
           style="font-weight:300;font-size:4.23333px;-inkscape-font-specification:'Roboto Light'"
           id="path535" />
        <path
           d="m 99.056365,32.218819 h 0.190169 v 3.216339 h -0.190169 z"
           style="font-weight:300;font-size:4.23333px;-inkscape-font-specification:'Roboto Light'"
           id="path537" />
        <path
           d="m 101.01387,35.650132 q -0.12403,0.307991 -0.26665,0.425813 -0.19224,0.159163 -0.37621,0.159163 h -0.28318 v -0.16123 h 0.24184 q 0.1509,0 0.26458,-0.09715 0.14677,-0.12609 0.24185,-0.370003 l 0.0682,-0.171565 -0.923971,-2.315102 h 0.202571 l 0.82269,2.062921 0.82475,-2.062921 h 0.20051 z"
           style="font-weight:300;font-size:4.23333px;-inkscape-font-specification:'Roboto Light'"
           id="path539" />
        <path
           d="m 104.04831,33.188268 v 0.208773 q -0.20051,-0.111621 -0.25012,-0.124023 -0.14469,-0.03514 -0.35967,-0.04134 -0.32659,0 -0.51263,0.130224 -0.14262,0.107487 -0.14262,0.367936 0,0.1757 0.13436,0.274918 0.14262,0.107487 0.40721,0.165365 l 0.13022,0.02894 q 0.32866,0.07235 0.49816,0.204638 0.19637,0.150895 0.20671,0.392741 0,0.328661 -0.19431,0.514696 -0.2067,0.183968 -0.66559,0.183968 -0.25631,0 -0.38861,-0.03514 -0.15916,-0.04547 -0.33486,-0.109554 v -0.237711 q 0.25218,0.144694 0.3266,0.165365 0.20463,0.05374 0.40514,0.05374 0.33486,0 0.49403,-0.138493 0.16123,-0.14056 0.16123,-0.367936 0,-0.190169 -0.10749,-0.276985 -0.15503,-0.124023 -0.49403,-0.202572 l -0.13229,-0.03101 q -0.29145,-0.06821 -0.44442,-0.192237 -0.19223,-0.155029 -0.19223,-0.376204 0,-0.363801 0.23151,-0.522965 0.23151,-0.159163 0.56844,-0.159163 0.28732,0 0.39687,0.03101 0.13229,0.03721 0.25839,0.09302 z"
           style="font-weight:300;font-size:4.23333px;-inkscape-font-specification:'Roboto Light'"
           id="path541" />
        <path
           d="m 104.9392,33.120056 h 0.19017 v 2.315102 h -0.19017 z m 0,-0.901237 h 0.19017 v 0.260449 h -0.19017 z"
           style="font-weight:300;font-size:4.23333px;-inkscape-font-specification:'Roboto Light'"
           id="path543" />
        <path
           d="m 107.43,33.188268 v 0.208773 q -0.2005,-0.111621 -0.25011,-0.124023 -0.14469,-0.03514 -0.35967,-0.04134 -0.32659,0 -0.51263,0.130224 -0.14262,0.107487 -0.14262,0.367936 0,0.1757 0.13435,0.274918 0.14263,0.107487 0.40721,0.165365 l 0.13023,0.02894 q 0.32866,0.07235 0.49816,0.204638 0.19637,0.150895 0.2067,0.392741 0,0.328661 -0.1943,0.514696 -0.2067,0.183968 -0.66559,0.183968 -0.25632,0 -0.38861,-0.03514 -0.15916,-0.04547 -0.33486,-0.109554 v -0.237711 q 0.25218,0.144694 0.3266,0.165365 0.20463,0.05374 0.40514,0.05374 0.33486,0 0.49402,-0.138493 0.16123,-0.14056 0.16123,-0.367936 0,-0.190169 -0.10748,-0.276985 -0.15503,-0.124023 -0.49403,-0.202572 l -0.13229,-0.03101 q -0.29145,-0.06821 -0.44442,-0.192237 -0.19223,-0.155029 -0.19223,-0.376204 0,-0.363801 0.23151,-0.522965 0.23151,-0.159163 0.56844,-0.159163 0.28732,0 0.39687,0.03101 0.13229,0.03721 0.25838,0.09302 z"
           style="font-weight:300;font-size:4.23333px;-inkscape-font-specification:'Roboto Light'"
           id="path545" />
        <path
           d="m 110.59673,34.128779 q -0.45888,0 -0.66146,0.163297 -0.20257,0.163297 -0.20257,0.47749 0,0.305924 0.16743,0.434082 0.16744,0.128157 0.39688,0.128157 0.43408,0 0.62425,-0.367936 0.19224,-0.367936 0.19224,-0.692464 v -0.142626 z m 0.709,-0.01447 v 1.320849 h -0.1881 v -0.628385 q -0.15916,0.460953 -0.42168,0.587044 -0.20877,0.101285 -0.41548,0.101285 -0.3452,0 -0.54363,-0.183968 -0.19844,-0.186035 -0.19844,-0.545702 0,-0.359668 0.25838,-0.574642 0.25838,-0.217041 0.84543,-0.217041 h 0.47129 v -0.03721 q 0,-0.307991 -0.1757,-0.506428 -0.17364,-0.198437 -0.57464,-0.198437 -0.19844,0 -0.40515,0.07441 -0.13229,0.04754 -0.34313,0.192236 v -0.204639 q 0.18397,-0.113688 0.34313,-0.16123 0.23151,-0.06821 0.44442,-0.06821 0.40928,0 0.67386,0.248047 0.22944,0.212906 0.22944,0.802017 z"
           style="font-weight:300;font-size:4.23333px;-inkscape-font-specification:'Roboto Light'"
           id="path547" />
        <path
           d="m 114.01357,34.037828 v 1.39733 h -0.19016 v -1.384927 q 0,-0.450619 -0.1447,-0.634586 -0.14469,-0.183968 -0.42581,-0.183968 -0.32866,0 -0.56224,0.198437 -0.23565,0.200504 -0.23565,0.696598 v 1.308446 h -0.19016 v -2.315102 h 0.19016 v 0.434081 q 0.10129,-0.210839 0.26666,-0.32246 0.24391,-0.167432 0.5395,-0.167432 0.34313,0 0.54777,0.233577 0.20463,0.231511 0.20463,0.740006 z"
           style="font-weight:300;font-size:4.23333px;-inkscape-font-specification:'Roboto Light'"
           id="path549" />
        <path
           d="m 116.48578,33.649222 v -1.430403 h 0.18603 v 3.216339 h -0.18603 v -0.525032 q -0.13022,0.30179 -0.28319,0.413411 -0.23357,0.171565 -0.44028,0.171565 -0.41134,0 -0.6842,-0.334863 -0.27285,-0.334863 -0.27285,-0.880565 0,-0.545703 0.27285,-0.880566 0.27286,-0.334863 0.6842,-0.334863 0.20671,0 0.44028,0.171566 0.15297,0.111621 0.28319,0.413411 z m -1.24023,-0.1757 q -0.23978,0.241846 -0.23978,0.806152 0,0.564306 0.23978,0.806151 0.23771,0.241846 0.50229,0.241846 0.25838,0 0.49816,-0.241846 0.23771,-0.241845 0.23771,-0.806151 0,-0.564306 -0.23771,-0.806152 -0.23978,-0.241845 -0.49816,-0.241845 -0.26458,0 -0.50229,0.241845 z"
           style="font-weight:300;font-size:4.23333px;-inkscape-font-specification:'Roboto Light'"
           id="path551" />
        <path
           d="m 120.74184,32.504073 v 0.194303 q -0.20257,-0.101285 -0.44855,-0.179834 -0.16123,-0.05168 -0.40721,-0.05581 -0.3638,-0.0062 -0.59118,0.16123 -0.2067,0.152962 -0.2067,0.525032 0,0.229444 0.1571,0.363802 0.16743,0.142627 0.50436,0.229443 l 0.24598,0.06408 q 0.33073,0.08682 0.51056,0.206706 0.33693,0.229443 0.33693,0.576708 0,0.502295 -0.29559,0.696598 -0.32246,0.208772 -0.66146,0.208772 -0.35346,0 -0.63252,-0.09715 -0.1757,-0.07028 -0.36793,-0.194303 v -0.202572 q 0.28939,0.171566 0.40514,0.219108 0.25838,0.10542 0.47956,0.10542 0.37827,0 0.62838,-0.167432 0.23565,-0.157096 0.23565,-0.551904 0,-0.23151 -0.1447,-0.363801 -0.20877,-0.192236 -0.54157,-0.272852 l -0.24804,-0.05994 q -0.29766,-0.07235 -0.50643,-0.202572 -0.31626,-0.198437 -0.31626,-0.541568 0,-0.427881 0.25838,-0.657324 0.23978,-0.212907 0.7276,-0.214974 0.28733,0 0.44029,0.04961 0.39274,0.128157 0.43821,0.16123 z"
           style="font-weight:300;font-size:4.23333px;-inkscape-font-specification:'Roboto Light'"
           id="path553" />
        <path
           d="m 121.66375,33.120056 h 0.19017 v 2.315102 h -0.19017 z m 0,-0.901237 h 0.19017 v 0.260449 h -0.19017 z"
           style="font-weight:300;font-size:4.23333px;-inkscape-font-specification:'Roboto Light'"
           id="path555" />
        <path
           d="m 124.51009,33.624417 q 0.10748,-0.279052 0.33899,-0.421679 0.21911,-0.138493 0.5209,-0.138493 0.30179,0 0.48369,0.212907 0.18397,0.210839 0.18397,0.760676 v 1.39733 h -0.1881 v -1.384927 q 0,-0.479557 -0.13229,-0.649056 -0.1323,-0.169498 -0.3514,-0.169498 -0.31833,0 -0.56224,0.19637 -0.26665,0.212907 -0.26665,0.698665 v 1.308446 h -0.19017 v -1.384927 q 0,-0.463021 -0.12816,-0.640788 -0.12816,-0.177766 -0.35553,-0.177766 -0.31833,0 -0.56224,0.198437 -0.26665,0.212907 -0.26665,0.696598 v 1.308446 h -0.19017 v -2.315102 h 0.19017 v 0.434081 q 0.10128,-0.227376 0.31419,-0.359667 0.21497,-0.130225 0.5271,-0.130225 0.20257,0 0.39067,0.136426 0.1447,0.10542 0.24392,0.423746 z"
           style="font-weight:300;font-size:4.23333px;-inkscape-font-specification:'Roboto Light'"
           id="path557" />
        <path
           d="m 126.94301,34.517385 v -1.397329 h 0.19017 v 1.384927 q 0,0.450618 0.1447,0.634586 0.14469,0.183968 0.42581,0.183968 0.32866,0 0.56224,-0.198438 0.23564,-0.200504 0.23564,-0.696597 v -1.308446 h 0.19017 v 2.315102 h -0.19017 v -0.434082 q -0.10128,0.21084 -0.26665,0.322461 -0.24391,0.167431 -0.5395,0.167431 -0.34313,0 -0.54777,-0.233577 -0.20464,-0.23151 -0.20464,-0.740006 z"
           style="font-weight:300;font-size:4.23333px;-inkscape-font-specification:'Roboto Light'"
           id="path559" />
        <path
           d="m 129.65086,32.218819 h 0.19016 v 3.216339 h -0.19016 z"
           style="font-weight:300;font-size:4.23333px;-inkscape-font-specification:'Roboto Light'"
           id="path561" />
        <path
           d="m 131.75304,34.128779 q -0.45888,0 -0.66145,0.163297 -0.20258,0.163297 -0.20258,0.47749 0,0.305924 0.16744,0.434082 0.16743,0.128157 0.39687,0.128157 0.43408,0 0.62425,-0.367936 0.19224,-0.367936 0.19224,-0.692464 v -0.142626 z m 0.709,-0.01447 v 1.320849 h -0.1881 v -0.628385 q -0.15916,0.460953 -0.42168,0.587044 -0.20877,0.101285 -0.41548,0.101285 -0.34519,0 -0.54363,-0.183968 -0.19844,-0.186035 -0.19844,-0.545702 0,-0.359668 0.25838,-0.574642 0.25838,-0.217041 0.84543,-0.217041 h 0.47129 v -0.03721 q 0,-0.307991 -0.1757,-0.506428 -0.17364,-0.198437 -0.57464,-0.198437 -0.19844,0 -0.40515,0.07441 -0.13229,0.04754 -0.34313,0.192236 v -0.204639 q 0.18397,-0.113688 0.34313,-0.16123 0.23151,-0.06821 0.44442,-0.06821 0.40928,0 0.67386,0.248047 0.22944,0.212906 0.22944,0.802017 z"
           style="font-weight:300;font-size:4.23333px;-inkscape-font-specification:'Roboto Light'"
           id="path563" />
        <path
           d="m 133.62167,32.462732 v 0.657324 h 0.78341 v 0.16123 h -0.78341 v 1.391128 q 0,0.264583 0.0682,0.370003 0.14056,0.23151 0.40928,0.23151 h 0.30592 v 0.161231 h -0.29559 q -0.28318,0 -0.48162,-0.165365 -0.19844,-0.165364 -0.19844,-0.597379 v -1.391128 h -0.27698 v -0.16123 h 0.27698 v -0.657324 z"
           style="font-weight:300;font-size:4.23333px;-inkscape-font-specification:'Roboto Light'"
           id="path565" />
        <path
           d="m 135.07687,33.120056 h 0.19017 v 2.315102 h -0.19017 z m 0,-0.901237 h 0.19017 v 0.260449 h -0.19017 z"
           style="font-weight:300;font-size:4.23333px;-inkscape-font-specification:'Roboto Light'"
           id="path567" />
        <path
           d="m 137.63382,33.51693 q -0.20464,-0.285253 -0.5581,-0.285253 -0.35347,0 -0.55811,0.283186 -0.2067,0.28112 -0.2067,0.760677 0,0.491959 0.20464,0.773078 0.20463,0.283187 0.56017,0.283187 0.35346,0 0.5581,-0.283187 0.20671,-0.285253 0.20671,-0.773078 0,-0.473356 -0.20671,-0.75861 z m -0.56017,-0.452685 q 0.44235,0 0.69866,0.330729 0.25839,0.332796 0.25839,0.882633 0,0.56844 -0.25839,0.897102 -0.25631,0.330729 -0.69866,0.330729 -0.44648,0 -0.70487,-0.328662 -0.25631,-0.328662 -0.25631,-0.899169 0,-0.556038 0.25838,-0.8847 0.25838,-0.328662 0.7028,-0.328662 z"
           style="font-weight:300;font-size:4.23333px;-inkscape-font-specification:'Roboto Light'"
           id="path569" />
        <path
           d="m 140.59592,34.037828 v 1.39733 h -0.19017 v -1.384927 q 0,-0.450619 -0.14469,-0.634586 -0.1447,-0.183968 -0.42582,-0.183968 -0.32866,0 -0.56224,0.198437 -0.23564,0.200504 -0.23564,0.696598 v 1.308446 h -0.19017 v -2.315102 h 0.19017 v 0.434081 q 0.10128,-0.210839 0.26665,-0.32246 0.24391,-0.167432 0.5395,-0.167432 0.34313,0 0.54777,0.233577 0.20464,0.231511 0.20464,0.740006 z"
           style="font-weight:300;font-size:4.23333px;-inkscape-font-specification:'Roboto Light'"
           id="path571" />
        <path
           d="m 142.48934,32.349044 h 2.39985 v 0.169498 h -1.09554 v 2.916616 h -0.20877 v -2.916616 h -1.09554 z"
           style="font-weight:300;font-size:4.23333px;-inkscape-font-specification:'Roboto Light'"
           id="path573" />
        <path
           d="m 146.11908,33.51693 q -0.20464,-0.285253 -0.5581,-0.285253 -0.35347,0 -0.55811,0.283186 -0.2067,0.28112 -0.2067,0.760677 0,0.491959 0.20464,0.773078 0.20463,0.283187 0.56017,0.283187 0.35346,0 0.5581,-0.283187 0.20671,-0.285253 0.20671,-0.773078 0,-0.473356 -0.20671,-0.75861 z m -0.56017,-0.452685 q 0.44235,0 0.69866,0.330729 0.25839,0.332796 0.25839,0.882633 0,0.56844 -0.25839,0.897102 -0.25631,0.330729 -0.69866,0.330729 -0.44648,0 -0.70487,-0.328662 -0.25631,-0.328662 -0.25631,-0.899169 0,-0.556038 0.25838,-0.8847 0.25838,-0.328662 0.7028,-0.328662 z"
           style="font-weight:300;font-size:4.23333px;-inkscape-font-specification:'Roboto Light'"
           id="path575" />
        <path
           d="m 148.70911,33.51693 q -0.20464,-0.285253 -0.55811,-0.285253 -0.35346,0 -0.5581,0.283186 -0.20671,0.28112 -0.20671,0.760677 0,0.491959 0.20464,0.773078 0.20464,0.283187 0.56017,0.283187 0.35347,0 0.55811,-0.283187 0.2067,-0.285253 0.2067,-0.773078 0,-0.473356 -0.2067,-0.75861 z m -0.56017,-0.452685 q 0.44235,0 0.69866,0.330729 0.25838,0.332796 0.25838,0.882633 0,0.56844 -0.25838,0.897102 -0.25631,0.330729 -0.69866,0.330729 -0.44649,0 -0.70487,-0.328662 -0.25631,-0.328662 -0.25631,-0.899169 0,-0.556038 0.25838,-0.8847 0.25838,-0.328662 0.7028,-0.328662 z"
           style="font-weight:300;font-size:4.23333px;-inkscape-font-specification:'Roboto Light'"
           id="path577" />
        <path
           d="m 149.92246,32.218819 h 0.19017 v 3.216339 h -0.19017 z"
           style="font-weight:300;font-size:4.23333px;-inkscape-font-specification:'Roboto Light'"
           id="path579" />
      </g>
    </g>
  </g>
</svg>
