<?xml version="1.0" encoding="UTF-8" standalone="no"?>
<!-- Created with Inkscape (http://www.inkscape.org/) -->

<svg
   xmlns:dc="http://purl.org/dc/elements/1.1/"
   xmlns:cc="http://creativecommons.org/ns#"
   xmlns:rdf="http://www.w3.org/1999/02/22-rdf-syntax-ns#"
   xmlns:svg="http://www.w3.org/2000/svg"
   xmlns="http://www.w3.org/2000/svg"
   xmlns:sodipodi="http://sodipodi.sourceforge.net/DTD/sodipodi-0.dtd"
   xmlns:inkscape="http://www.inkscape.org/namespaces/inkscape"
   width="700"
   height="543.13599"
   viewBox="0 0 185.20833 143.70473"
   version="1.1"
   id="svg8"
   inkscape:version="0.92.5 (2060ec1f9f, 2020-04-08)"
   sodipodi:docname="logo-v2.svg">
  <defs
     id="defs2" />
  <sodipodi:namedview
     id="base"
     pagecolor="#ffffff"
     bordercolor="#666666"
     borderopacity="1.0"
     inkscape:pageopacity="0.0"
     inkscape:pageshadow="2"
     inkscape:zoom="0.9793841"
     inkscape:cx="287.59823"
     inkscape:cy="186.35863"
     inkscape:document-units="mm"
     inkscape:current-layer="layer1"
     showgrid="false"
     inkscape:window-width="1920"
     inkscape:window-height="1043"
     inkscape:window-x="1600"
     inkscape:window-y="0"
     inkscape:window-maximized="1"
     inkscape:snap-global="false"
     showguides="false"
     inkscape:guide-bbox="true"
     units="px">
    <sodipodi:guide
       position="105.57145,216.22105"
       orientation="0,1"
       id="guide1382"
       inkscape:locked="false" />
    <sodipodi:guide
       position="105.57145,216.22106"
       orientation="1,0"
       id="guide1384"
       inkscape:locked="false" />
  </sodipodi:namedview>
  <metadata
     id="metadata5">
    <rdf:RDF>
      <cc:Work
         rdf:about="">
        <dc:format>image/svg+xml</dc:format>
        <dc:type
           rdf:resource="http://purl.org/dc/dcmitype/StillImage" />
        <dc:title></dc:title>
      </cc:Work>
    </rdf:RDF>
  </metadata>
  <g
     inkscape:label="Layer 1"
     inkscape:groupmode="layer"
     id="layer1"
     transform="translate(0,-153.29524)">
    <rect
       style="opacity:1;fill:#ffffff;fill-opacity:1;stroke:none;stroke-width:1.34588504;stroke-linecap:butt;stroke-miterlimit:4;stroke-dasharray:none;stroke-opacity:1"
       id="rect1116"
       width="185.20833"
       height="143.70473"
       x="0"
       y="153.29524" />
    <g
       id="g1095"
       transform="matrix(2.7880826,0,0,2.7880826,-198.44738,30.125502)">
      <path
         id="path1002"
         transform="scale(0.26458333)"
         d="m 310.9707,243.68555 c -14.54627,9.89941 -24.08099,26.61062 -24.02148,45.51562 0.0951,30.22288 24.67544,54.6882 54.89844,54.64063 27.31913,-0.043 49.95786,-20.10032 54.05664,-46.27539 h -2.36133 c -4.07069,24.90473 -25.64308,43.9082 -51.70313,43.94921 -28.96808,0.0456 -52.47521,-23.35429 -52.5664,-52.32226 -0.0553,-17.54815 8.50603,-33.09475 21.69726,-42.66406 z"
         style="color:#000000;font-style:normal;font-variant:normal;font-weight:normal;font-stretch:normal;font-size:medium;line-height:normal;font-family:sans-serif;font-variant-ligatures:normal;font-variant-position:normal;font-variant-caps:normal;font-variant-numeric:normal;font-variant-alternates:normal;font-feature-settings:normal;text-indent:0;text-align:start;text-decoration:none;text-decoration-line:none;text-decoration-style:solid;text-decoration-color:#000000;letter-spacing:normal;word-spacing:normal;text-transform:none;writing-mode:lr-tb;direction:ltr;text-orientation:mixed;dominant-baseline:auto;baseline-shift:baseline;text-anchor:start;white-space:normal;shape-padding:0;clip-rule:nonzero;display:inline;overflow:visible;visibility:visible;opacity:1;isolation:auto;mix-blend-mode:normal;color-interpolation:sRGB;color-interpolation-filters:linearRGB;solid-color:#000000;solid-opacity:1;vector-effect:none;fill:#000000;fill-opacity:1;fill-rule:nonzero;stroke:none;stroke-width:2.32440948;stroke-linecap:butt;stroke-linejoin:miter;stroke-miterlimit:4;stroke-dasharray:none;stroke-dashoffset:0;stroke-opacity:1;color-rendering:auto;image-rendering:auto;shape-rendering:auto;text-rendering:auto;enable-background:accumulate"
         inkscape:connector-curvature="0" />
      <rect
         y="63.821171"
         x="83.071365"
         height="14.900276"
         width="14.900276"
         id="rect1006"
         style="opacity:1;fill:#fe0000;fill-opacity:1;stroke:none;stroke-width:1.32291663;stroke-linecap:round;stroke-miterlimit:4;stroke-dasharray:none;stroke-opacity:1" />
      <rect
         y="54.613163"
         x="97.971642"
         height="9.2080002"
         width="9.2080002"
         id="rect1008"
         style="opacity:1;fill:#fd9500;fill-opacity:1;stroke:none;stroke-width:2.00339603;stroke-linecap:round;stroke-miterlimit:4;stroke-dasharray:none;stroke-opacity:1" />
      <rect
         y="48.922161"
         x="92.28064"
         height="5.691"
         width="5.691"
         id="rect1010"
         style="opacity:1;fill:#00c100;fill-opacity:1;stroke:none;stroke-width:1.50234938;stroke-linecap:round;stroke-miterlimit:4;stroke-dasharray:none;stroke-opacity:1" />
      <rect
         style="opacity:1;fill:#01c5ff;fill-opacity:1;stroke:none;stroke-width:0.92844188;stroke-linecap:round;stroke-miterlimit:4;stroke-dasharray:none;stroke-opacity:1"
         id="rect1012"
         width="3.517"
         height="3.517"
         x="88.763641"
         y="54.613163" />
      <path
         inkscape:connector-curvature="0"
         id="path1014"
         style="font-style:normal;font-variant:normal;font-weight:normal;font-stretch:normal;font-size:10.58333302px;line-height:1.25;font-family:Calibri;-inkscape-font-specification:Calibri;letter-spacing:0px;word-spacing:0px;fill:#ffffff;fill-opacity:1;stroke:none;stroke-width:0.26458332"
         d="m 96.92489,77.75366 q 0,0.03101 -0.0155,0.05684 -0.0155,0.02584 -0.0568,0.04134 -0.0362,0.0155 -0.0982,0.02584 -0.0568,0.01034 -0.14986,0.01034 -0.0827,0 -0.1447,-0.01034 -0.062,-0.01034 -0.0982,-0.02584 -0.0362,-0.0155 -0.0517,-0.04134 -0.0155,-0.02584 -0.0155,-0.05684 v -6.03064 h -0.0103 l -2.630329,6.066813 q -0.01033,0.02067 -0.031,0.04134 -0.02067,0.0155 -0.05685,0.02584 -0.03617,0.0155 -0.08785,0.02067 -0.04651,0.01034 -0.113689,0.01034 -0.07235,0 -0.124023,-0.01034 -0.05168,-0.0052 -0.08785,-0.02067 -0.03101,-0.01034 -0.05168,-0.02584 -0.02067,-0.02067 -0.02584,-0.04134 L 90.57388,71.72302 h -0.0052 v 6.03064 q 0,0.03101 -0.0155,0.05684 -0.0155,0.02584 -0.05685,0.04134 -0.03617,0.0155 -0.09819,0.02584 -0.05684,0.01034 -0.155029,0.01034 -0.08785,0 -0.149862,-0.01034 -0.05684,-0.01034 -0.09302,-0.02584 -0.03617,-0.0155 -0.05168,-0.04134 -0.01033,-0.02584 -0.01033,-0.05684 v -6.258016 q 0,-0.186035 0.09819,-0.253214 0.09819,-0.07235 0.191203,-0.07235 h 0.341064 q 0.129192,0 0.227377,0.03101 0.09818,0.02584 0.170532,0.08268 0.07752,0.05168 0.129191,0.129191 0.05168,0.07751 0.09302,0.1757 l 2.206583,5.312337 h 0.02584 l 2.299601,-5.291667 q 0.0517,-0.124023 0.10852,-0.206705 0.062,-0.08785 0.12402,-0.139527 0.0672,-0.05168 0.13953,-0.07235 0.0775,-0.02067 0.16536,-0.02067 h 0.37724 q 0.0465,0 0.0982,0.0155 0.0517,0.0155 0.093,0.05684 0.0414,0.03617 0.0672,0.09819 0.031,0.06201 0.031,0.155029 z" />
      <path
         inkscape:connector-curvature="0"
         id="path1016"
         style="font-style:normal;font-variant:normal;font-weight:normal;font-stretch:normal;font-size:10.58333302px;line-height:1.25;font-family:Calibri;-inkscape-font-specification:Calibri;letter-spacing:0px;word-spacing:0px;fill:#000000;fill-opacity:1;stroke:none;stroke-width:0.26458332"
         d="m 102.53695,77.75366 q 0,0.03101 -0.0155,0.05684 -0.0103,0.02584 -0.0465,0.04134 -0.0362,0.0155 -0.093,0.02584 -0.0568,0.01034 -0.13953,0.01034 -0.093,0 -0.14986,-0.01034 -0.0568,-0.01034 -0.0879,-0.02584 -0.031,-0.0155 -0.0465,-0.04134 -0.0103,-0.02584 -0.0103,-0.05684 v -0.661458 q -0.40308,0.449585 -0.79065,0.651123 -0.38241,0.201538 -0.76481,0.201538 -0.45992,0 -0.77515,-0.15503 -0.31522,-0.155029 -0.5116,-0.418579 -0.1912,-0.268717 -0.27905,-0.620117 -0.0827,-0.3514 -0.0827,-0.847493 v -2.826701 q 0,-0.03101 0.0103,-0.05684 0.0155,-0.02584 0.0517,-0.04134 0.0362,-0.02067 0.093,-0.02584 0.062,-0.01033 0.14986,-0.01033 0.093,0 0.14986,0.01033 0.062,0.0052 0.093,0.02584 0.0362,0.0155 0.0517,0.04134 0.0155,0.02584 0.0155,0.05684 V 75.8468 q 0,0.434082 0.0672,0.707967 0.0672,0.273885 0.20154,0.470255 0.13436,0.191203 0.34106,0.299724 0.21187,0.103352 0.49093,0.103352 0.35656,0 0.70796,-0.253214 0.35657,-0.253215 0.75448,-0.744141 v -3.3538 q 0,-0.03101 0.0103,-0.05684 0.0155,-0.02584 0.0517,-0.04134 0.0362,-0.02067 0.093,-0.02584 0.062,-0.01033 0.15503,-0.01033 0.0879,0 0.14469,0.01033 0.062,0.0052 0.093,0.02584 0.0362,0.0155 0.0517,0.04134 0.0155,0.02584 0.0155,0.05684 z" />
      <path
         inkscape:connector-curvature="0"
         id="path1018"
         style="font-style:normal;font-variant:normal;font-weight:normal;font-stretch:normal;font-size:10.58333302px;line-height:1.25;font-family:Calibri;-inkscape-font-specification:Calibri;letter-spacing:0px;word-spacing:0px;fill:#000000;fill-opacity:1;stroke:none;stroke-width:0.26458332"
         d="m 104.87789,77.75366 q 0,0.03101 -0.0155,0.05684 -0.0155,0.02584 -0.0517,0.04134 -0.031,0.0155 -0.093,0.02584 -0.0568,0.01034 -0.14986,0.01034 -0.0878,0 -0.14986,-0.01034 -0.0568,-0.01034 -0.093,-0.02584 -0.0362,-0.0155 -0.0517,-0.04134 -0.0103,-0.02584 -0.0103,-0.05684 v -6.965983 q 0,-0.03101 0.0103,-0.05684 0.0155,-0.02584 0.0517,-0.04134 0.0362,-0.02067 0.093,-0.02584 0.062,-0.01034 0.14986,-0.01034 0.093,0 0.14986,0.01034 0.062,0.0052 0.093,0.02584 0.0362,0.0155 0.0517,0.04134 0.0155,0.02584 0.0155,0.05684 z" />
      <path
         inkscape:connector-curvature="0"
         id="path1020"
         style="font-style:normal;font-variant:normal;font-weight:normal;font-stretch:normal;font-size:10.58333302px;line-height:1.25;font-family:Calibri;-inkscape-font-specification:Calibri;letter-spacing:0px;word-spacing:0px;fill:#000000;fill-opacity:1;stroke:none;stroke-width:0.26458332"
         d="m 110.4021,72.968422 q 0.11886,0 0.1602,0.06201 0.0413,0.05684 0.0413,0.160197 v 4.563029 q 0,0.03101 -0.0155,0.05684 -0.0155,0.02584 -0.0517,0.04134 -0.031,0.0155 -0.093,0.02584 -0.0568,0.01034 -0.14469,0.01034 -0.093,0 -0.15503,-0.01034 -0.0568,-0.01034 -0.093,-0.02584 -0.031,-0.0155 -0.0465,-0.04134 -0.0155,-0.02584 -0.0155,-0.05684 v -4.263306 h -2.58382 v 2.826701 q 0,0.532267 0.14986,0.81132 0.15503,0.279053 0.55811,0.279053 0.12402,0 0.22221,-0.02584 0.10335,-0.02584 0.18086,-0.05684 0.0775,-0.03101 0.12919,-0.05685 0.0568,-0.02584 0.0982,-0.02584 0.0258,0 0.0465,0.01033 0.0207,0.01034 0.031,0.04134 0.0155,0.02584 0.0207,0.07235 0.0103,0.04134 0.0103,0.10852 0,0.108521 -0.0207,0.1757 -0.0155,0.06718 -0.0568,0.108521 -0.0362,0.03617 -0.11369,0.07235 -0.0724,0.03101 -0.17053,0.05168 -0.0982,0.02584 -0.20671,0.03617 -0.10852,0.0155 -0.21187,0.0155 -0.34624,0 -0.58912,-0.09302 -0.24287,-0.09302 -0.3979,-0.279053 -0.15503,-0.191203 -0.22738,-0.480591 -0.0672,-0.289388 -0.0672,-0.682129 v -2.909383 h -0.69763 q -0.0724,0 -0.11369,-0.06201 -0.0413,-0.06718 -0.0413,-0.196371 0,-0.06718 0.0103,-0.113688 0.0103,-0.05168 0.031,-0.08268 0.0207,-0.03617 0.0465,-0.05168 0.031,-0.0155 0.0672,-0.0155 h 0.69763 v -1.147216 q 0,-0.03101 0.0103,-0.05684 0.0155,-0.02584 0.0517,-0.04134 0.0362,-0.02067 0.093,-0.02584 0.062,-0.01034 0.14986,-0.01034 0.093,0 0.14986,0.01034 0.062,0.0052 0.093,0.02584 0.0362,0.0155 0.0517,0.04134 0.0155,0.02584 0.0155,0.05684 v 1.147216 z m 0.29456,-1.46761 q 0,0.248047 -0.0879,0.335897 -0.0879,0.08785 -0.3204,0.08785 -0.22737,0 -0.31522,-0.08268 -0.0827,-0.08785 -0.0827,-0.335897 0,-0.248046 0.0879,-0.335896 0.0879,-0.08785 0.32039,-0.08785 0.22738,0 0.31006,0.08785 0.0879,0.08268 0.0879,0.330729 z m -1.57096,1.46761 z" />
      <path
         inkscape:connector-curvature="0"
         id="path1022"
         style="font-style:normal;font-variant:normal;font-weight:normal;font-stretch:normal;font-size:10.58333302px;line-height:1.25;font-family:Calibri;-inkscape-font-specification:Calibri;letter-spacing:0px;word-spacing:0px;fill:#000000;fill-opacity:1;stroke:none;stroke-width:0.26458332"
         d="m 116.82031,76.947508 q 0,0.05684 -0.005,0.103352 -0.005,0.04651 -0.0155,0.08268 -0.0103,0.03617 -0.031,0.06718 -0.0155,0.03101 -0.0672,0.08268 -0.0465,0.04651 -0.21187,0.160197 -0.16537,0.108521 -0.41858,0.217041 -0.24805,0.108521 -0.57361,0.186035 -0.32556,0.07752 -0.7183,0.07752 -0.63046,0 -1.14205,-0.217041 -0.5116,-0.222209 -0.87334,-0.645955 -0.35656,-0.423747 -0.55293,-1.043864 -0.19121,-0.620117 -0.19121,-1.415934 0,-0.816488 0.20671,-1.462443 0.20671,-0.651123 0.57878,-1.100708 0.37723,-0.454753 0.89917,-0.692465 0.5271,-0.242879 1.16272,-0.242879 0.29972,0 0.57877,0.05684 0.28422,0.05684 0.52193,0.144694 0.23772,0.08785 0.42375,0.201538 0.1912,0.113689 0.25838,0.186036 0.0724,0.06718 0.0879,0.09818 0.0207,0.03101 0.031,0.07235 0.0103,0.03617 0.0155,0.08785 0.005,0.04651 0.005,0.10852 0,0.07235 -0.0103,0.129191 -0.005,0.05168 -0.0258,0.09302 -0.0155,0.03617 -0.0413,0.05684 -0.0258,0.02067 -0.062,0.02067 -0.0723,0 -0.2067,-0.103353 -0.12919,-0.108521 -0.34624,-0.237712 -0.21187,-0.129191 -0.52193,-0.232544 -0.31006,-0.10852 -0.73897,-0.10852 -0.47026,0 -0.863,0.191202 -0.39274,0.186036 -0.67696,0.552938 -0.27905,0.366903 -0.43925,0.904338 -0.15503,0.537435 -0.15503,1.235066 0,0.666626 0.1447,1.183391 0.14469,0.516764 0.41858,0.873331 0.27388,0.3514 0.67696,0.537435 0.40307,0.186035 0.91467,0.186035 0.41858,0 0.72864,-0.103352 0.31522,-0.108521 0.53743,-0.237712 0.22221,-0.129191 0.36174,-0.232544 0.14469,-0.10852 0.22221,-0.10852 0.031,0 0.0517,0.0155 0.0207,0.01034 0.031,0.04651 0.0155,0.03101 0.0207,0.08785 0.0103,0.05684 0.0103,0.139527 z" />
      <path
         inkscape:connector-curvature="0"
         id="path1024"
         style="font-style:normal;font-variant:normal;font-weight:normal;font-stretch:normal;font-size:10.58333302px;line-height:1.25;font-family:Calibri;-inkscape-font-specification:Calibri;letter-spacing:0px;word-spacing:0px;fill:#000000;fill-opacity:1;stroke:none;stroke-width:0.26458332"
         d="m 122.85612,77.645139 q 0.031,0.07751 0.0258,0.129191 0,0.04651 -0.0362,0.07235 -0.031,0.02584 -0.10336,0.03101 -0.0672,0.01034 -0.1757,0.01034 -0.10852,0 -0.1757,-0.01034 -0.062,-0.0052 -0.0982,-0.02067 -0.0362,-0.0155 -0.0568,-0.04134 -0.0155,-0.02584 -0.031,-0.06201 l -0.64079,-1.782837 h -2.93522 l -0.61495,1.772502 q -0.0103,0.03617 -0.031,0.06201 -0.0207,0.02584 -0.0568,0.04651 -0.0362,0.0155 -0.10335,0.02584 -0.062,0.01034 -0.1602,0.01034 -0.10852,0 -0.18087,-0.01034 -0.0723,-0.01034 -0.10852,-0.03617 -0.031,-0.02584 -0.0362,-0.07235 0,-0.04651 0.031,-0.124024 l 2.34095,-6.361368 q 0.0155,-0.04134 0.0465,-0.06718 0.031,-0.03101 0.0775,-0.04651 0.0517,-0.0155 0.11886,-0.02067 0.0723,-0.01034 0.16019,-0.01034 0.093,0 0.1602,0.01034 0.0724,0.0052 0.11886,0.02067 0.0517,0.0155 0.0775,0.04651 0.031,0.02584 0.0465,0.06718 z m -2.77502,-5.798095 h -0.005 l -1.26091,3.596679 h 2.55799 z" />
      <path
         inkscape:connector-curvature="0"
         id="path1026"
         style="font-style:normal;font-variant:normal;font-weight:normal;font-stretch:normal;font-size:10.58333302px;line-height:1.25;font-family:Calibri;-inkscape-font-specification:Calibri;letter-spacing:0px;word-spacing:0px;fill:#000000;fill-opacity:1;stroke:none;stroke-width:0.26458332"
         d="m 127.45532,76.048338 q 0,0.444417 -0.16019,0.795817 -0.1602,0.351399 -0.44959,0.599446 -0.28939,0.24288 -0.68729,0.372071 -0.39791,0.129191 -0.86817,0.129191 -0.32039,0 -0.60461,-0.06201 -0.28422,-0.05684 -0.50643,-0.139526 -0.22221,-0.08268 -0.37724,-0.165365 -0.14986,-0.08785 -0.2067,-0.144694 -0.0568,-0.06201 -0.0827,-0.139526 -0.0258,-0.08268 -0.0258,-0.201538 0,-0.08785 0.0103,-0.144694 0.0103,-0.05684 0.0258,-0.09302 0.0207,-0.03617 0.0465,-0.04651 0.031,-0.0155 0.062,-0.0155 0.0724,0 0.20154,0.09302 0.13436,0.08785 0.34106,0.19637 0.21187,0.103353 0.50126,0.196371 0.29456,0.08785 0.68213,0.08785 0.31523,0 0.57878,-0.08268 0.26355,-0.08785 0.45475,-0.248047 0.1912,-0.160196 0.29456,-0.39274 0.10852,-0.237712 0.10852,-0.537435 0,-0.310059 -0.13436,-0.532268 -0.13436,-0.222208 -0.35657,-0.387573 -0.21704,-0.170532 -0.49609,-0.304891 -0.27906,-0.139526 -0.57361,-0.273885 -0.28939,-0.139526 -0.56844,-0.299723 -0.27906,-0.160197 -0.50126,-0.37207 -0.21705,-0.217041 -0.3514,-0.506429 -0.13436,-0.289388 -0.13436,-0.687297 0,-0.387573 0.13952,-0.692464 0.13953,-0.310059 0.39274,-0.521932 0.25322,-0.217041 0.60462,-0.330729 0.35657,-0.113688 0.78031,-0.113688 0.21188,0 0.42892,0.04134 0.21704,0.04134 0.40824,0.10852 0.19637,0.06201 0.34623,0.144694 0.15503,0.07751 0.20154,0.129191 0.0517,0.04651 0.062,0.07235 0.0155,0.02067 0.0258,0.05684 0.0103,0.03617 0.0155,0.08785 0.005,0.04651 0.005,0.118856 0,0.06718 -0.0103,0.124024 -0.005,0.05168 -0.0207,0.09302 -0.0155,0.03617 -0.0413,0.05684 -0.0207,0.02067 -0.0517,0.02067 -0.0568,0 -0.1757,-0.07235 -0.11369,-0.07751 -0.28939,-0.170532 -0.1757,-0.09302 -0.41858,-0.165365 -0.24288,-0.07751 -0.55294,-0.07751 -0.30489,0 -0.53226,0.08268 -0.22738,0.08268 -0.37724,0.227376 -0.14986,0.139526 -0.22738,0.330729 -0.0723,0.191203 -0.0723,0.403076 0,0.310059 0.13435,0.532268 0.13436,0.222208 0.35657,0.39274 0.22221,0.170533 0.50126,0.310059 0.28422,0.134359 0.57361,0.273885 0.29456,0.134359 0.57361,0.294556 0.28422,0.155029 0.50643,0.37207 0.22221,0.211873 0.35657,0.501261 0.13435,0.284221 0.13435,0.676962 z" />
      <path
         inkscape:connector-curvature="0"
         id="path1028"
         style="font-style:normal;font-variant:normal;font-weight:normal;font-stretch:normal;font-size:10.58333302px;line-height:1.25;font-family:Calibri;-inkscape-font-specification:Calibri;letter-spacing:0px;word-spacing:0px;fill:#000000;fill-opacity:1;stroke:none;stroke-width:0.26458332"
         d="m 132.86068,71.459471 q 0,0.06718 -0.0103,0.118855 -0.0103,0.05168 -0.031,0.08785 -0.0207,0.03101 -0.0517,0.05168 -0.031,0.0155 -0.0672,0.0155 h -1.99471 v 6.020304 q 0,0.03101 -0.0155,0.05684 -0.0155,0.02584 -0.0517,0.04134 -0.0362,0.0155 -0.0982,0.02584 -0.062,0.01034 -0.14987,0.01034 -0.0879,0 -0.14986,-0.01034 -0.062,-0.01034 -0.0982,-0.02584 -0.0362,-0.0155 -0.0517,-0.04134 -0.0155,-0.02584 -0.0155,-0.05684 v -6.020304 h -1.99471 q -0.0413,0 -0.0724,-0.0155 -0.0258,-0.02067 -0.0465,-0.05168 -0.0207,-0.03617 -0.031,-0.08785 -0.0103,-0.05168 -0.0103,-0.118855 0,-0.07235 0.0103,-0.124024 0.0103,-0.05684 0.031,-0.09302 0.0207,-0.03617 0.0465,-0.05168 0.031,-0.02067 0.0724,-0.02067 h 4.61987 q 0.0362,0 0.0672,0.02067 0.031,0.0155 0.0517,0.05168 0.0207,0.03617 0.031,0.09302 0.0103,0.05168 0.0103,0.124024 z" />
    </g>
  </g>
</svg>
