<svg
	version="1.1"
	id="el_KF7JoHXeP7t"
	xmlns="http://www.w3.org/2000/svg"
	xmlns:xlink="http://www.w3.org/1999/xlink"
	x="0px"
	y="0px"
	viewBox="0 0 271 40"
	enable-background="new 0 0 271 40"
	xml:space="preserve">
	<style>
		@-webkit-keyframes el_d2pnuZ75Z5N_DtYvQoUN9_Animation {
			0% {
				-webkit-transform: translate(97.82499694824219px, 290.1260070800781px) translate(-97.82499694824219px, -290.1260070800781px) translate(-120px, 0px);
				transform: translate(97.82499694824219px, 290.1260070800781px) translate(-97.82499694824219px, -290.1260070800781px) translate(-120px, 0px);
			}
			100% {
				-webkit-transform: translate(97.82499694824219px, 290.1260070800781px) translate(-97.82499694824219px, -290.1260070800781px) translate(0px, 0px);
				transform: translate(97.82499694824219px, 290.1260070800781px) translate(-97.82499694824219px, -290.1260070800781px) translate(0px, 0px);
			}
		}
		@keyframes el_d2pnuZ75Z5N_DtYvQoUN9_Animation {
			0% {
				-webkit-transform: translate(97.82499694824219px, 290.1260070800781px) translate(-97.82499694824219px, -290.1260070800781px) translate(-120px, 0px);
				transform: translate(97.82499694824219px, 290.1260070800781px) translate(-97.82499694824219px, -290.1260070800781px) translate(-120px, 0px);
			}
			100% {
				-webkit-transform: translate(97.82499694824219px, 290.1260070800781px) translate(-97.82499694824219px, -290.1260070800781px) translate(0px, 0px);
				transform: translate(97.82499694824219px, 290.1260070800781px) translate(-97.82499694824219px, -290.1260070800781px) translate(0px, 0px);
			}
		}
		@-webkit-keyframes el_Erx-XrqEtyh_w_Iyzp7O0_Animation {
			0% {
				-webkit-transform: translate(132.74200439453125px, 298.510009765625px) translate(-132.74200439453125px, -298.510009765625px) translate(-140px, 0px);
				transform: translate(132.74200439453125px, 298.510009765625px) translate(-132.74200439453125px, -298.510009765625px) translate(-140px, 0px);
			}
			100% {
				-webkit-transform: translate(132.74200439453125px, 298.510009765625px) translate(-132.74200439453125px, -298.510009765625px) translate(0px, 0px);
				transform: translate(132.74200439453125px, 298.510009765625px) translate(-132.74200439453125px, -298.510009765625px) translate(0px, 0px);
			}
		}
		@keyframes el_Erx-XrqEtyh_w_Iyzp7O0_Animation {
			0% {
				-webkit-transform: translate(132.74200439453125px, 298.510009765625px) translate(-132.74200439453125px, -298.510009765625px) translate(-140px, 0px);
				transform: translate(132.74200439453125px, 298.510009765625px) translate(-132.74200439453125px, -298.510009765625px) translate(-140px, 0px);
			}
			100% {
				-webkit-transform: translate(132.74200439453125px, 298.510009765625px) translate(-132.74200439453125px, -298.510009765625px) translate(0px, 0px);
				transform: translate(132.74200439453125px, 298.510009765625px) translate(-132.74200439453125px, -298.510009765625px) translate(0px, 0px);
			}
		}
		@-webkit-keyframes el_z7f0MHYfhZK_alDicVlT5_Animation {
			0% {
				-webkit-transform: translate(132.20814514160156px, 287.1007385253906px) translate(-132.20814514160156px, -287.1007385253906px) translate(-140px, 0px);
				transform: translate(132.20814514160156px, 287.1007385253906px) translate(-132.20814514160156px, -287.1007385253906px) translate(-140px, 0px);
			}
			100% {
				-webkit-transform: translate(132.20814514160156px, 287.1007385253906px) translate(-132.20814514160156px, -287.1007385253906px) translate(0px, 0px);
				transform: translate(132.20814514160156px, 287.1007385253906px) translate(-132.20814514160156px, -287.1007385253906px) translate(0px, 0px);
			}
		}
		@keyframes el_z7f0MHYfhZK_alDicVlT5_Animation {
			0% {
				-webkit-transform: translate(132.20814514160156px, 287.1007385253906px) translate(-132.20814514160156px, -287.1007385253906px) translate(-140px, 0px);
				transform: translate(132.20814514160156px, 287.1007385253906px) translate(-132.20814514160156px, -287.1007385253906px) translate(-140px, 0px);
			}
			100% {
				-webkit-transform: translate(132.20814514160156px, 287.1007385253906px) translate(-132.20814514160156px, -287.1007385253906px) translate(0px, 0px);
				transform: translate(132.20814514160156px, 287.1007385253906px) translate(-132.20814514160156px, -287.1007385253906px) translate(0px, 0px);
			}
		}
		@-webkit-keyframes el_zpBI4VcUiQv_yTm_z9PpQ_Animation {
			0% {
				-webkit-transform: translate(146.28233337402344px, 290.1690673828125px) translate(-146.28233337402344px, -290.1690673828125px) translate(-160px, 0px);
				transform: translate(146.28233337402344px, 290.1690673828125px) translate(-146.28233337402344px, -290.1690673828125px) translate(-160px, 0px);
			}
			100% {
				-webkit-transform: translate(146.28233337402344px, 290.1690673828125px) translate(-146.28233337402344px, -290.1690673828125px) translate(0px, 0px);
				transform: translate(146.28233337402344px, 290.1690673828125px) translate(-146.28233337402344px, -290.1690673828125px) translate(0px, 0px);
			}
		}
		@keyframes el_zpBI4VcUiQv_yTm_z9PpQ_Animation {
			0% {
				-webkit-transform: translate(146.28233337402344px, 290.1690673828125px) translate(-146.28233337402344px, -290.1690673828125px) translate(-160px, 0px);
				transform: translate(146.28233337402344px, 290.1690673828125px) translate(-146.28233337402344px, -290.1690673828125px) translate(-160px, 0px);
			}
			100% {
				-webkit-transform: translate(146.28233337402344px, 290.1690673828125px) translate(-146.28233337402344px, -290.1690673828125px) translate(0px, 0px);
				transform: translate(146.28233337402344px, 290.1690673828125px) translate(-146.28233337402344px, -290.1690673828125px) translate(0px, 0px);
			}
		}
		@-webkit-keyframes el_O84IuYGjPrl_fGES0Adfk_Animation {
			0% {
				-webkit-transform: translate(197.93798828125px, 297.9080505371094px) translate(-197.93798828125px, -297.9080505371094px) translate(-210px, 0px);
				transform: translate(197.93798828125px, 297.9080505371094px) translate(-197.93798828125px, -297.9080505371094px) translate(-210px, 0px);
			}
			100% {
				-webkit-transform: translate(197.93798828125px, 297.9080505371094px) translate(-197.93798828125px, -297.9080505371094px) translate(0px, 0px);
				transform: translate(197.93798828125px, 297.9080505371094px) translate(-197.93798828125px, -297.9080505371094px) translate(0px, 0px);
			}
		}
		@keyframes el_O84IuYGjPrl_fGES0Adfk_Animation {
			0% {
				-webkit-transform: translate(197.93798828125px, 297.9080505371094px) translate(-197.93798828125px, -297.9080505371094px) translate(-210px, 0px);
				transform: translate(197.93798828125px, 297.9080505371094px) translate(-197.93798828125px, -297.9080505371094px) translate(-210px, 0px);
			}
			100% {
				-webkit-transform: translate(197.93798828125px, 297.9080505371094px) translate(-197.93798828125px, -297.9080505371094px) translate(0px, 0px);
				transform: translate(197.93798828125px, 297.9080505371094px) translate(-197.93798828125px, -297.9080505371094px) translate(0px, 0px);
			}
		}
		@-webkit-keyframes el_zZs_OJ7_yk5_UMjEH7g6K_Animation {
			0% {
				-webkit-transform: translate(217.3668670654297px, 297.9897766113281px) translate(-217.3668670654297px, -297.9897766113281px) translate(-224px, 0px);
				transform: translate(217.3668670654297px, 297.9897766113281px) translate(-217.3668670654297px, -297.9897766113281px) translate(-224px, 0px);
			}
			100% {
				-webkit-transform: translate(217.3668670654297px, 297.9897766113281px) translate(-217.3668670654297px, -297.9897766113281px) translate(0px, 0px);
				transform: translate(217.3668670654297px, 297.9897766113281px) translate(-217.3668670654297px, -297.9897766113281px) translate(0px, 0px);
			}
		}
		@keyframes el_zZs_OJ7_yk5_UMjEH7g6K_Animation {
			0% {
				-webkit-transform: translate(217.3668670654297px, 297.9897766113281px) translate(-217.3668670654297px, -297.9897766113281px) translate(-224px, 0px);
				transform: translate(217.3668670654297px, 297.9897766113281px) translate(-217.3668670654297px, -297.9897766113281px) translate(-224px, 0px);
			}
			100% {
				-webkit-transform: translate(217.3668670654297px, 297.9897766113281px) translate(-217.3668670654297px, -297.9897766113281px) translate(0px, 0px);
				transform: translate(217.3668670654297px, 297.9897766113281px) translate(-217.3668670654297px, -297.9897766113281px) translate(0px, 0px);
			}
		}
		@-webkit-keyframes el_ChPeyb7Yp51_vT5QDiYyP_Animation {
			0% {
				-webkit-transform: translate(250.468994140625px, 290.166015625px) translate(-250.468994140625px, -290.166015625px) translate(-260px, 0px);
				transform: translate(250.468994140625px, 290.166015625px) translate(-250.468994140625px, -290.166015625px) translate(-260px, 0px);
			}
			100% {
				-webkit-transform: translate(250.468994140625px, 290.166015625px) translate(-250.468994140625px, -290.166015625px) translate(0px, 0px);
				transform: translate(250.468994140625px, 290.166015625px) translate(-250.468994140625px, -290.166015625px) translate(0px, 0px);
			}
		}
		@keyframes el_ChPeyb7Yp51_vT5QDiYyP_Animation {
			0% {
				-webkit-transform: translate(250.468994140625px, 290.166015625px) translate(-250.468994140625px, -290.166015625px) translate(-260px, 0px);
				transform: translate(250.468994140625px, 290.166015625px) translate(-250.468994140625px, -290.166015625px) translate(-260px, 0px);
			}
			100% {
				-webkit-transform: translate(250.468994140625px, 290.166015625px) translate(-250.468994140625px, -290.166015625px) translate(0px, 0px);
				transform: translate(250.468994140625px, 290.166015625px) translate(-250.468994140625px, -290.166015625px) translate(0px, 0px);
			}
		}
		@-webkit-keyframes el_Wz4Jqqf-6p5_1SBzyXtth_Animation {
			0% {
				-webkit-transform: translate(0.032999999821186066px, 286.8230285644531px) translate(-0.032999999821186066px, -286.8230285644531px) translate(0px, 0px);
				transform: translate(0.032999999821186066px, 286.8230285644531px) translate(-0.032999999821186066px, -286.8230285644531px) translate(0px, 0px);
			}
			100% {
				-webkit-transform: translate(0.032999999821186066px, 286.8230285644531px) translate(-0.032999999821186066px, -286.8230285644531px) translate(0px, 0px);
				transform: translate(0.032999999821186066px, 286.8230285644531px) translate(-0.032999999821186066px, -286.8230285644531px) translate(0px, 0px);
			}
		}
		@keyframes el_Wz4Jqqf-6p5_1SBzyXtth_Animation {
			0% {
				-webkit-transform: translate(0.032999999821186066px, 286.8230285644531px) translate(-0.032999999821186066px, -286.8230285644531px) translate(0px, 0px);
				transform: translate(0.032999999821186066px, 286.8230285644531px) translate(-0.032999999821186066px, -286.8230285644531px) translate(0px, 0px);
			}
			100% {
				-webkit-transform: translate(0.032999999821186066px, 286.8230285644531px) translate(-0.032999999821186066px, -286.8230285644531px) translate(0px, 0px);
				transform: translate(0.032999999821186066px, 286.8230285644531px) translate(-0.032999999821186066px, -286.8230285644531px) translate(0px, 0px);
			}
		}
		@-webkit-keyframes el_y11XoZ1xKZU_39jbOM3BT_Animation {
			0% {
				-webkit-transform: translate(0.18200001120567322px, 290.14801025390625px) translate(-0.18200001120567322px, -290.14801025390625px) translate(0px, 0px);
				transform: translate(0.18200001120567322px, 290.14801025390625px) translate(-0.18200001120567322px, -290.14801025390625px) translate(0px, 0px);
			}
			100% {
				-webkit-transform: translate(0.18200001120567322px, 290.14801025390625px) translate(-0.18200001120567322px, -290.14801025390625px) translate(0px, 0px);
				transform: translate(0.18200001120567322px, 290.14801025390625px) translate(-0.18200001120567322px, -290.14801025390625px) translate(0px, 0px);
			}
		}
		@keyframes el_y11XoZ1xKZU_39jbOM3BT_Animation {
			0% {
				-webkit-transform: translate(0.18200001120567322px, 290.14801025390625px) translate(-0.18200001120567322px, -290.14801025390625px) translate(0px, 0px);
				transform: translate(0.18200001120567322px, 290.14801025390625px) translate(-0.18200001120567322px, -290.14801025390625px) translate(0px, 0px);
			}
			100% {
				-webkit-transform: translate(0.18200001120567322px, 290.14801025390625px) translate(-0.18200001120567322px, -290.14801025390625px) translate(0px, 0px);
				transform: translate(0.18200001120567322px, 290.14801025390625px) translate(-0.18200001120567322px, -290.14801025390625px) translate(0px, 0px);
			}
		}
		@-webkit-keyframes el_JQj4MDhsqNe_KUkhryAsh_Animation {
			0% {
				-webkit-transform: translate(40.637027740478516px, 298.0050354003906px) translate(-40.637027740478516px, -298.0050354003906px) translate(-60px, 0px);
				transform: translate(40.637027740478516px, 298.0050354003906px) translate(-40.637027740478516px, -298.0050354003906px) translate(-60px, 0px);
			}
			100% {
				-webkit-transform: translate(40.637027740478516px, 298.0050354003906px) translate(-40.637027740478516px, -298.0050354003906px) translate(0px, 0px);
				transform: translate(40.637027740478516px, 298.0050354003906px) translate(-40.637027740478516px, -298.0050354003906px) translate(0px, 0px);
			}
		}
		@keyframes el_JQj4MDhsqNe_KUkhryAsh_Animation {
			0% {
				-webkit-transform: translate(40.637027740478516px, 298.0050354003906px) translate(-40.637027740478516px, -298.0050354003906px) translate(-60px, 0px);
				transform: translate(40.637027740478516px, 298.0050354003906px) translate(-40.637027740478516px, -298.0050354003906px) translate(-60px, 0px);
			}
			100% {
				-webkit-transform: translate(40.637027740478516px, 298.0050354003906px) translate(-40.637027740478516px, -298.0050354003906px) translate(0px, 0px);
				transform: translate(40.637027740478516px, 298.0050354003906px) translate(-40.637027740478516px, -298.0050354003906px) translate(0px, 0px);
			}
		}
		@-webkit-keyframes el_PUE72ntWucS_BybS1KVP8_Animation {
			0% {
				-webkit-transform: translate(72.17900848388672px, 290.1660461425781px) translate(-72.17900848388672px, -290.1660461425781px) translate(-80px, 0px);
				transform: translate(72.17900848388672px, 290.1660461425781px) translate(-72.17900848388672px, -290.1660461425781px) translate(-80px, 0px);
			}
			100% {
				-webkit-transform: translate(72.17900848388672px, 290.1660461425781px) translate(-72.17900848388672px, -290.1660461425781px) translate(0px, 0px);
				transform: translate(72.17900848388672px, 290.1660461425781px) translate(-72.17900848388672px, -290.1660461425781px) translate(0px, 0px);
			}
		}
		@keyframes el_PUE72ntWucS_BybS1KVP8_Animation {
			0% {
				-webkit-transform: translate(72.17900848388672px, 290.1660461425781px) translate(-72.17900848388672px, -290.1660461425781px) translate(-80px, 0px);
				transform: translate(72.17900848388672px, 290.1660461425781px) translate(-72.17900848388672px, -290.1660461425781px) translate(-80px, 0px);
			}
			100% {
				-webkit-transform: translate(72.17900848388672px, 290.1660461425781px) translate(-72.17900848388672px, -290.1660461425781px) translate(0px, 0px);
				transform: translate(72.17900848388672px, 290.1660461425781px) translate(-72.17900848388672px, -290.1660461425781px) translate(0px, 0px);
			}
		}
		#el_KF7JoHXeP7t * {
			-webkit-animation-duration: 3s;
			animation-duration: 3s;
			-webkit-animation-timing-function: cubic-bezier(0, 0, 1, 1);
			animation-timing-function: cubic-bezier(0, 0, 1, 1);
		}
		#el_CmzBDDd3bUq {
			-webkit-transform: translate(0px, -286.41666px);
			transform: translate(0px, -286.41666px);
		}
		#el_Wz4Jqqf-6p5 {
			fill: #ffffff;
			stroke: none;
			visibility: hidden;
		}
		#el_y11XoZ1xKZU {
			fill: #ffffff;
			stroke: none;
		}
		#el_JQj4MDhsqNe {
			fill: #ffffff;
			stroke: none;
		}
		#el_PUE72ntWucS {
			fill: #ffffff;
			stroke: none;
		}
		#el_d2pnuZ75Z5N {
			fill: #ffffff;
			stroke: none;
		}
		#el_Erx-XrqEtyh {
			fill: #ffffff;
			stroke: none;
		}
		#el_z7f0MHYfhZK {
			fill: #ffffff;
			stroke: none;
		}
		#el_zpBI4VcUiQv {
			fill: #ffffff;
			stroke: none;
		}
		#el_O84IuYGjPrl {
			fill: #ffffff;
			stroke: none;
		}
		#el_zZs_OJ7_yk5 {
			fill: #ffffff;
			stroke: none;
		}
		#el_ChPeyb7Yp51 {
			fill: #ffffff;
			stroke: none;
		}
		#el_PUE72ntWucS_BybS1KVP8 {
			-webkit-animation-name: el_PUE72ntWucS_BybS1KVP8_Animation;
			animation-name: el_PUE72ntWucS_BybS1KVP8_Animation;
			-webkit-transform: translate(72.17900848388672px, 290.1660461425781px) translate(-72.17900848388672px, -290.1660461425781px) translate(0px, 0px);
			transform: translate(72.17900848388672px, 290.1660461425781px) translate(-72.17900848388672px, -290.1660461425781px) translate(0px, 0px);
		}
		#el_JQj4MDhsqNe_KUkhryAsh {
			-webkit-animation-name: el_JQj4MDhsqNe_KUkhryAsh_Animation;
			animation-name: el_JQj4MDhsqNe_KUkhryAsh_Animation;
			-webkit-transform: translate(40.637027740478516px, 298.0050354003906px) translate(-40.637027740478516px, -298.0050354003906px) translate(0px, 0px);
			transform: translate(40.637027740478516px, 298.0050354003906px) translate(-40.637027740478516px, -298.0050354003906px) translate(0px, 0px);
		}
		#el_y11XoZ1xKZU_39jbOM3BT {
			-webkit-animation-name: el_y11XoZ1xKZU_39jbOM3BT_Animation;
			animation-name: el_y11XoZ1xKZU_39jbOM3BT_Animation;
			-webkit-transform: translate(0.18200001120567322px, 290.14801025390625px) translate(-0.18200001120567322px, -290.14801025390625px) translate(0px, 0px);
			transform: translate(0.18200001120567322px, 290.14801025390625px) translate(-0.18200001120567322px, -290.14801025390625px) translate(0px, 0px);
		}
		#el_Wz4Jqqf-6p5_1SBzyXtth {
			-webkit-animation-name: el_Wz4Jqqf-6p5_1SBzyXtth_Animation;
			animation-name: el_Wz4Jqqf-6p5_1SBzyXtth_Animation;
			-webkit-transform: translate(0.032999999821186066px, 286.8230285644531px) translate(-0.032999999821186066px, -286.8230285644531px) translate(0px, 0px);
			transform: translate(0.032999999821186066px, 286.8230285644531px) translate(-0.032999999821186066px, -286.8230285644531px) translate(0px, 0px);
		}
		#el_ChPeyb7Yp51_vT5QDiYyP {
			-webkit-animation-name: el_ChPeyb7Yp51_vT5QDiYyP_Animation;
			animation-name: el_ChPeyb7Yp51_vT5QDiYyP_Animation;
			-webkit-transform: translate(250.468994140625px, 290.166015625px) translate(-250.468994140625px, -290.166015625px) translate(0px, 0px);
			transform: translate(250.468994140625px, 290.166015625px) translate(-250.468994140625px, -290.166015625px) translate(0px, 0px);
		}
		#el_zZs_OJ7_yk5_UMjEH7g6K {
			-webkit-animation-name: el_zZs_OJ7_yk5_UMjEH7g6K_Animation;
			animation-name: el_zZs_OJ7_yk5_UMjEH7g6K_Animation;
			-webkit-transform: translate(217.3668670654297px, 297.9897766113281px) translate(-217.3668670654297px, -297.9897766113281px) translate(0px, 0px);
			transform: translate(217.3668670654297px, 297.9897766113281px) translate(-217.3668670654297px, -297.9897766113281px) translate(0px, 0px);
		}
		#el_O84IuYGjPrl_fGES0Adfk {
			-webkit-animation-name: el_O84IuYGjPrl_fGES0Adfk_Animation;
			animation-name: el_O84IuYGjPrl_fGES0Adfk_Animation;
			-webkit-transform: translate(197.93798828125px, 297.9080505371094px) translate(-197.93798828125px, -297.9080505371094px) translate(0px, 0px);
			transform: translate(197.93798828125px, 297.9080505371094px) translate(-197.93798828125px, -297.9080505371094px) translate(0px, 0px);
		}
		#el_zpBI4VcUiQv_yTm_z9PpQ {
			-webkit-animation-name: el_zpBI4VcUiQv_yTm_z9PpQ_Animation;
			animation-name: el_zpBI4VcUiQv_yTm_z9PpQ_Animation;
			-webkit-transform: translate(146.28233337402344px, 290.1690673828125px) translate(-146.28233337402344px, -290.1690673828125px) translate(0px, 0px);
			transform: translate(146.28233337402344px, 290.1690673828125px) translate(-146.28233337402344px, -290.1690673828125px) translate(0px, 0px);
		}
		#el_z7f0MHYfhZK_alDicVlT5 {
			-webkit-animation-name: el_z7f0MHYfhZK_alDicVlT5_Animation;
			animation-name: el_z7f0MHYfhZK_alDicVlT5_Animation;
			-webkit-transform: translate(132.20814514160156px, 287.1007385253906px) translate(-132.20814514160156px, -287.1007385253906px) translate(0px, 0px);
			transform: translate(132.20814514160156px, 287.1007385253906px) translate(-132.20814514160156px, -287.1007385253906px) translate(0px, 0px);
		}
		#el_Erx-XrqEtyh_w_Iyzp7O0 {
			-webkit-animation-name: el_Erx-XrqEtyh_w_Iyzp7O0_Animation;
			animation-name: el_Erx-XrqEtyh_w_Iyzp7O0_Animation;
			-webkit-transform: translate(132.74200439453125px, 298.510009765625px) translate(-132.74200439453125px, -298.510009765625px) translate(0px, 0px);
			transform: translate(132.74200439453125px, 298.510009765625px) translate(-132.74200439453125px, -298.510009765625px) translate(0px, 0px);
		}
		#el_d2pnuZ75Z5N_DtYvQoUN9 {
			-webkit-animation-name: el_d2pnuZ75Z5N_DtYvQoUN9_Animation;
			animation-name: el_d2pnuZ75Z5N_DtYvQoUN9_Animation;
			-webkit-transform: translate(97.82499694824219px, 290.1260070800781px) translate(-97.82499694824219px, -290.1260070800781px) translate(0px, 0px);
			transform: translate(97.82499694824219px, 290.1260070800781px) translate(-97.82499694824219px, -290.1260070800781px) translate(0px, 0px);
		}
	</style>

	<g id="el_CmzBDDd3bUq">
		<g id="el_7jMigZTbsgP">

			<g id="el_Wz4Jqqf-6p5_1SBzyXtth" data-animator-group="true" data-animator-type="0"/>
			<g id="el_y11XoZ1xKZU_39jbOM3BT" data-animator-group="true" data-animator-type="0"><path
				id="el_y11XoZ1xKZU"
				
				d="M0.182,308.079v-17.931l3.771,0.086&#10;&#9;&#9;&#9;l3.771,0.086l8.59,11.27c4.725,6.198,8.798,11.477,9.052,11.731c0.41,0.409,0.462-0.872,0.462-11.347v-11.808h3.862h3.862v17.922&#10;&#9;&#9;&#9;v17.922h-3.976h-3.976l-8.595-11.295c-4.727-6.213-8.708-11.365-8.848-11.451s-0.253,4.996-0.253,11.295v11.451H4.044H0.182&#10;&#9;&#9;&#9;V308.079z"/></g>
			<g id="el_JQj4MDhsqNe_KUkhryAsh" data-animator-group="true" data-animator-type="0"><path
				id="el_JQj4MDhsqNe"
				
				d="M52.749,326.25&#10;&#9;&#9;&#9;c-5.414-0.548-9.928-4.168-11.501-9.223c-0.734-2.358-0.821-6.724-0.183-9.148c1.766-6.713,9.2-11.062,16.386-9.586&#10;&#9;&#9;&#9;c1.332,0.273,3.07,0.809,3.862,1.189c2.209,1.062,4.776,3.68,5.798,5.915c0.779,1.704,0.891,2.344,0.996,5.705l0.118,3.785h-10.25&#10;&#9;&#9;&#9;h-10.25l0.214,0.695c0.669,2.169,2.077,3.562,4.445,4.397c2.5,0.881,5.816,0.371,8.229-1.266l1.195-0.811l1.959,2.068&#10;&#9;&#9;&#9;c2.195,2.316,2.195,2.306-0.111,3.893C60.722,325.883,57.055,326.686,52.749,326.25L52.749,326.25z M60.578,308.63&#10;&#9;&#9;&#9;c-0.675-3.137-3.035-4.779-6.461-4.495c-2.879,0.239-5.457,2.197-5.917,4.496L48,309.633h6.397h6.397L60.578,308.63z"/></g>
			<g id="el_PUE72ntWucS_BybS1KVP8" data-animator-group="true" data-animator-type="0"><path
				id="el_PUE72ntWucS"
				
				d="M83.01,326.256&#10;&#9;&#9;&#9;c-2.072-0.318-3.946-1.385-5.381-3.061c-1.886-2.203-2.051-3.15-2.051-11.764v-7.669h-1.699h-1.7v-2.61v-2.61l1.623-0.094&#10;&#9;&#9;&#9;l1.622-0.093l0.086-4.095l0.086-4.094h3.699h3.699v4.171v4.172h3.399h3.399v2.626v2.626h-3.399h-3.399v6.968&#10;&#9;&#9;&#9;c0,7.67,0.143,8.391,1.8,9.077c1.16,0.48,2.789,0.174,3.936-0.741l0.895-0.713l1.336,2.5l1.336,2.502l-0.712,0.576&#10;&#9;&#9;&#9;c-1.164,0.942-4.329,2.315-5.656,2.454C85.249,326.458,83.936,326.397,83.01,326.256L83.01,326.256z"/></g>
			<g id="el_d2pnuZ75Z5N_DtYvQoUN9" data-animator-group="true" data-animator-type="0"><path
				id="el_d2pnuZ75Z5N"
				
				d="M97.825,308.068v-17.942l9.347,0.104&#10;&#9;&#9;&#9;c8.978,0.101,9.419,0.133,11.176,0.835c4.533,1.81,6.922,6.453,5.622,10.926c-0.612,2.104-1.641,3.384-3.641,4.526l-1.512,0.863&#10;&#9;&#9;&#9;l1.852,0.676c3.828,1.396,5.795,4.535,5.517,8.802c-0.306,4.681-3.164,7.746-8.213,8.808c-0.994,0.209-5.273,0.345-10.893,0.345&#10;&#9;&#9;&#9;h-9.254V308.068z M116.285,318.817c1.436-0.78,2.005-1.818,2.005-3.654c0-3.311-1.882-4.258-8.491-4.279l-4.249-0.016v4.354v4.354&#10;&#9;&#9;&#9;l4.867-0.108c3.915-0.087,5.063-0.214,5.868-0.651V318.817z M114.709,303.996c2.203-1.188,2.203-5.458,0-6.646&#10;&#9;&#9;&#9;c-0.732-0.396-1.975-0.552-5.065-0.639l-4.094-0.115v4.078v4.078l4.094-0.116C112.734,304.547,113.977,304.391,114.709,303.996&#10;&#9;&#9;&#9;L114.709,303.996z"/></g>
			<g id="el_Erx-XrqEtyh_w_Iyzp7O0" data-animator-group="true" data-animator-type="0"><path id="el_Erx-XrqEtyh"  d="M132.742,312.26v-13.75h3.708h3.709v13.75&#10;&#9;&#9;&#9;v13.75h-3.709h-3.708V312.26z"/></g>
			<g id="el_z7f0MHYfhZK_alDicVlT5" data-animator-group="true" data-animator-type="0"><path
				id="el_z7f0MHYfhZK"
				
				d="M134.255,295.027&#10;&#9;&#9;&#9;c-1.404-0.938-2.204-2.529-2.021-4.023c0.665-5.448,8.613-5.08,8.613,0.398C140.848,294.892,137.121,296.941,134.255,295.027&#10;&#9;&#9;&#9;L134.255,295.027z"/></g>
			<g id="el_zpBI4VcUiQv_yTm_z9PpQ" data-animator-group="true" data-animator-type="0"><path
				id="el_zpBI4VcUiQv"
				
				d="M156.051,326.286&#10;&#9;&#9;&#9;c-3.288-0.373-8.559-2.438-9.686-3.796c-0.252-0.304,0.049-0.948,1.225-2.622l1.559-2.221l0.896,0.639&#10;&#9;&#9;&#9;c2.465,1.754,6.865,2.975,9.316,2.583c2.416-0.387,3.182-2.362,1.529-3.944c-0.568-0.545-2.254-1.344-4.6-2.182&#10;&#9;&#9;&#9;c-6.617-2.361-8.56-4.262-8.562-8.378c0-1.894,0.124-2.387,0.926-3.68c1.141-1.835,3.339-3.394,5.418-3.839&#10;&#9;&#9;&#9;c0.95-0.204,5.63-0.335,11.902-0.335h10.336v-4.171v-4.171h3.699h3.698l0.087,4.094l0.086,4.095l3.322,0.087l3.32,0.087v2.616&#10;&#9;&#9;&#9;v2.616h-3.428h-3.428l0.11,7.029c0.12,7.591,0.216,8.064,1.796,8.881c1.235,0.639,1.82,0.59,3.572-0.297&#10;&#9;&#9;&#9;c1.698-0.859,1.527-0.963,2.956,1.801c0.515,0.994,0.86,2.003,0.769,2.24c-0.24,0.627-2.904,2.244-4.351,2.641&#10;&#9;&#9;&#9;c-1.948,0.533-4.888,0.372-6.595-0.361c-1.883-0.811-3.826-2.769-4.747-4.783c-0.665-1.455-0.713-2.002-0.814-9.326l-0.108-7.781&#10;&#9;&#9;&#9;l-9.011-0.098c-10.248-0.112-11.513-0.012-12.313,0.977c-1.379,1.703-0.068,2.9,5.035,4.602c6.926,2.307,8.723,3.963,8.756,8.064&#10;&#9;&#9;&#9;c0.021,2.691-0.734,4.57-2.494,6.191c-1.605,1.48-3.406,2.36-5.381,2.629c-0.758,0.104-1.656,0.229-1.996,0.275&#10;&#9;&#9;&#9;C158.512,326.489,157.252,326.424,156.051,326.286L156.051,326.286z"/></g>
			<g id="el_O84IuYGjPrl_fGES0Adfk" data-animator-group="true" data-animator-type="0"><path
				id="el_O84IuYGjPrl"
				
				d="M197.939,312.26v-13.75h3.709h3.707v1.89&#10;&#9;&#9;&#9;v1.89l1.275-1.152c1.354-1.223,4.396-2.754,6.064-3.051l1.004-0.179v3.546v3.546h-1.525c-1.998,0-3.012,0.41-4.434,1.79&#10;&#9;&#9;&#9;c-2.025,1.969-2.385,3.795-2.385,12.147v7.074h-3.707h-3.709V312.26z"/></g>
			<g id="el_zZs_OJ7_yk5_UMjEH7g6K" data-animator-group="true" data-animator-type="0"><path
				id="el_zZs_OJ7_yk5"
				
				d="M229.767,326.301&#10;&#9;&#9;&#9;c-4.04-0.461-7.257-2.322-9.759-5.645c-3.516-4.672-3.522-12.041-0.015-16.807c4.118-5.594,12.028-7.461,18.573-4.384&#10;&#9;&#9;&#9;c1.961,0.922,5.078,3.861,6.115,5.766c2.248,4.13,2.322,9.562,0.189,13.744c-1.775,3.478-6.415,6.784-10.079,7.183&#10;&#9;&#9;&#9;c-0.979,0.105-2.06,0.232-2.399,0.283C232.053,326.495,230.871,326.426,229.767,326.301L229.767,326.301z M234.643,319.659&#10;&#9;&#9;&#9;c1.465-0.611,2.729-1.812,3.561-3.382c0.9-1.7,0.959-6.271,0.104-7.88c-1.451-2.722-3.52-4.017-6.422-4.017&#10;&#9;&#9;&#9;c-4.387,0-7.016,2.897-7.049,7.763c-0.023,3.584,1.215,5.93,3.814,7.227C230.471,320.276,232.887,320.393,234.643,319.659&#10;&#9;&#9;&#9;L234.643,319.659z"/></g>
			<g id="el_ChPeyb7Yp51_vT5QDiYyP" data-animator-group="true" data-animator-type="0"><path
				id="el_ChPeyb7Yp51"
				
				d="M261.301,326.256&#10;&#9;&#9;&#9;c-2.971-0.457-5.562-2.473-6.867-5.345c-0.659-1.45-0.709-2.026-0.819-9.347l-0.116-7.803h-1.515h-1.515v-2.626v-2.626h1.546&#10;&#9;&#9;&#9;h1.545v-4.172v-4.171h3.862h3.862v4.171v4.172h3.245h3.244v2.626v2.626h-3.244h-3.245l0.007,7.184&#10;&#9;&#9;&#9;c0.007,7.75,0.053,7.98,1.75,8.848c1.004,0.514,1.685,0.428,3.367-0.426c0.836-0.424,1.553-0.771,1.594-0.771&#10;&#9;&#9;&#9;c0.04-0.002,0.619,1.083,1.285,2.41l1.213,2.41l-1.44,0.977C266.361,326.222,264.299,326.717,261.301,326.256L261.301,326.256z"/></g>
		</g>
	</g>
</svg>
