<?xml version="1.0" encoding="UTF-8" standalone="no"?>
<svg
   style="height:13px;width:85px;margin-bottom:4px"
   xmlnsdc="http://purl.org/dc/elements/1.1/"
   xmlnscc="http://creativecommons.org/ns#"
   xmlnsrdf="http://www.w3.org/1999/02/22-rdf-syntax-ns#"
   xmlnssvg="http://www.w3.org/2000/svg"
   xmlnssodipodi="http://sodipodi.sourceforge.net/DTD/sodipodi-0.dtd"
   xmlnsinkscape="http://www.inkscape.org/namespaces/inkscape"
   id="svg8"
   version="1.1"
   viewBox="0 0 22.489583 3.4395836"
   height="13"
   width="85"
   sodipodidocname="NetBistrot.svg"
   inkscapeversion="0.92.5 (2060ec1f9f, 2020-04-08)"
   sodipodi:docname="netbistrot.svg"
   inkscape:version="1.2.2 (b0a8486541, 2022-12-01, custom)"
   xmlns:inkscape="http://www.inkscape.org/namespaces/inkscape"
   xmlns:sodipodi="http://sodipodi.sourceforge.net/DTD/sodipodi-0.dtd"
   xmlns="http://www.w3.org/2000/svg"
   xmlns:svg="http://www.w3.org/2000/svg"
   xmlns:rdf="http://www.w3.org/1999/02/22-rdf-syntax-ns#"
   xmlns:cc="http://creativecommons.org/ns#"
   xmlns:dc="http://purl.org/dc/elements/1.1/">
  <metadata
     id="metadata18">
    <rdf:rdf>
      <cc:work
         rdfabout="">
        <dc:format>image/svg+xml</dc:format>
        <dc:type
           rdfresource="http://purl.org/dc/dcmitype/StillImage" />
        <dc:title />
      </cc:work>
    </rdf:rdf>
  </metadata>
  <sodipodi:namedview
     pagecolor="#ffffff"
     bordercolor="#666666"
     borderopacity="1"
     objecttolerance="10"
     gridtolerance="10"
     guidetolerance="10"
     inkscapepageopacity="0"
     inkscapepageshadow="2"
     inkscapewindowwidth="1600"
     inkscapewindowheight="780"
     id="namedview16"
     showgrid="false"
     inkscapezoom="1.7093596"
     inkscapecx="101.5"
     inkscapecy="15"
     inkscapewindowx="0"
     inkscapewindowy="27"
     inkscapewindowmaximized="1"
     inkscapecurrentlayer="svg8"
     inkscape:showpageshadow="2"
     inkscape:pageopacity="0.0"
     inkscape:pagecheckerboard="0"
     inkscape:deskcolor="#d1d1d1"
     inkscape:zoom="15.411765"
     inkscape:cx="45.030533"
     inkscape:cy="6.4885495"
     inkscape:window-width="1920"
     inkscape:window-height="1043"
     inkscape:window-x="1920"
     inkscape:window-y="0"
     inkscape:window-maximized="1"
     inkscape:current-layer="svg8" />
  <defs
     id="defs2" />
  <g
     id="g261"
     style="fill:#ffffff;fill-opacity:1">
    <path
       style="fill:#ffffff;fill-opacity:1;stroke:none;stroke-width:0.0108227"
       id="Path #1"
       d="M 2.1168125,2.2631974 0.63193733,0.31510887 H 4.4988565e-8 V 3.3410313 H 0.67522838 V 1.4448941 L 2.1168125,3.3410313 H 2.7922582 V 0.31510887 H 2.1168125 Z M 5.1276888,2.609527 C 4.980501,2.762342 4.7929425,2.8387474 4.5649093,2.8387474 c -0.1414532,0 -0.2685114,-0.040227 -0.38096,-0.1209979 C 4.0713934,2.6369154 4.0050505,2.5330128 3.9847042,2.4058407 H 5.6819208 V 2.0595153 c 0,-0.3375601 -0.1119066,-0.6030346 -0.335504,-0.7964404 C 5.1227114,1.0697822 4.8506294,0.97302493 4.5302763,0.97302493 c -0.3204598,0 -0.5981708,0.10822667 -0.8333484,0.32468007 -0.2351776,0.2164491 -0.3527117,0.5080186 -0.3527117,0.874474 0,0.3665643 0.1153701,0.6587826 0.3463264,0.8766382 0.2308483,0.2179728 0.5230617,0.3268483 0.87664,0.3268483 0.3534695,0 0.6615909,-0.1241331 0.9241495,-0.3722989 z M 4.002128,1.942741 C 4.0194422,1.810056 4.0813505,1.7047511 4.1881703,1.6268262 4.2950985,1.5487883 4.412633,1.5098301 4.5410986,1.5098301 c 0.1283579,0 0.2373427,0.037548 0.326739,0.1125591 0.089503,0.074999 0.1414515,0.1818233 0.155846,0.3203518 z M 7.4632293,1.4795241 V 1.0119874 H 6.9004497 V 0.31510887 H 6.2466493 V 1.0119874 H 5.9741349 v 0.4675367 h 0.2725144 v 1.0736145 c 0,0.2540093 0.077274,0.4546609 0.2317147,0.60185 0.1544387,0.1471975 0.3435125,0.2206769 0.5672175,0.2206769 0.2235974,0 0.4364798,-0.09232 0.6385403,-0.2771657 L 7.4415848,2.6439435 c -0.083659,0.1097462 -0.1861516,0.1646067 -0.3074726,0.1646067 -0.063422,0 -0.1182929,-0.025325 -0.1645062,-0.075752 C 6.9235007,2.6822488 6.9004497,2.6123399 6.9004497,2.5229415 V 1.4795241 Z M 10.294342,3.059642 c 0.144375,-0.1616891 0.216453,-0.3477319 0.216453,-0.5583417 0,-0.1905928 -0.05552,-0.350009 -0.166669,-0.4784661 C 10.233085,1.8944733 10.083732,1.810056 9.8961738,1.7695741 c 0.05195,-0.023148 0.08799,-0.039682 0.1082272,-0.049779 0.02013,-0.010004 0.05617,-0.035413 0.108227,-0.075765 0.152925,-0.1153636 0.229442,-0.2914481 0.229442,-0.528044 0,-0.19631496 -0.06786,-0.37240778 -0.203467,-0.52834964 C 10.063601,0.50407336 9.9516936,0.43762205 9.8029909,0.38860506 9.6543944,0.33957132 9.4776612,0.31510887 9.2727865,0.31510887 H 8.095384 V 3.3410313 h 1.324592 c 0.4155913,0 0.707046,-0.093723 0.874366,-0.2813893 z M 8.770613,0.8864394 h 0.3246809 c 0.1991379,0 0.3405906,0.0215993 0.4242502,0.0649486 0.08366,0.0432781 0.1254354,0.1321366 0.1254354,0.2663368 0,0.1342002 -0.045456,0.2214304 -0.1362585,0.2617993 -0.09091,0.040394 -0.2300906,0.060499 -0.4176486,0.060499 H 8.770613 Z m 0,1.1861778 h 0.3981674 c 0.2251124,0 0.3889685,0.022353 0.491458,0.067096 0.102492,0.044802 0.1536831,0.1371304 0.1536831,0.27717 0,0.1399391 -0.048377,0.2336658 -0.1450241,0.2813935 C 9.5722506,2.7458913 9.4272268,2.769592 9.233716,2.769592 H 8.770613 Z m 2.896265,-1.0606298 h -0.649363 v 2.3290439 h 0.649363 z M 11.34198,0.82572698 c 0.106927,0 0.19708,-0.0367104 0.270566,-0.11017313 0.07359,-0.0735925 0.110393,-0.16385322 0.110393,-0.27057297 0,-0.10692486 -0.0368,-0.19707678 -0.110393,-0.2705646 -0.07349,-0.0735925 -0.163639,-0.11049544 -0.270566,-0.11049544 -0.106822,0 -0.196973,0.03687786 -0.270568,0.11049544 -0.07349,0.0734878 -0.110285,0.16363974 -0.110285,0.2705646 0,0.10671975 0.0368,0.19698051 0.110285,0.27057297 0.07359,0.0734795 0.163746,0.11017313 0.270568,0.11017313 z m 1.826114,0.18842452 c -0.27414,0 -0.494706,0.026748 -0.667869,0.1623379 -0.173165,0.1356067 -0.259747,0.3109419 -0.259747,0.5260976 0,0.2150469 0.08799,0.3772802 0.263967,0.4868045 0.08658,0.054982 0.163748,0.096862 0.231498,0.1256442 0.06786,0.028925 0.165912,0.063534 0.294377,0.1040115 0.128574,0.040394 0.226627,0.08366 0.294377,0.1298678 0.06786,0.046104 0.101843,0.096653 0.101843,0.1515257 0,0.054869 -0.02457,0.098808 -0.07359,0.1319273 -0.04903,0.033111 -0.115371,0.049674 -0.199139,0.049674 -0.274248,0 -0.532477,-0.093727 -0.774905,-0.2813852 l -0.285721,0.4070378 c 0.150004,0.1212198 0.318839,0.2128786 0.506395,0.2750059 0.187665,0.062014 0.367973,0.092965 0.541136,0.092965 0.259745,0 0.474035,-0.069268 0.642977,-0.2077969 0.168834,-0.1385284 0.25336,-0.3225159 0.25336,-0.5519497 0,-0.2294464 -0.08085,-0.393195 -0.242537,-0.4914718 h 1e-6 c -0.08658,-0.05183 -0.160933,-0.09003 -0.223056,-0.114606 -0.06202,-0.024571 -0.166669,-0.059955 -0.313859,-0.1060584 -0.14708,-0.046217 -0.252385,-0.08659 -0.315914,-0.1212197 -0.06342,-0.034659 -0.09513,-0.082253 -0.09513,-0.1428609 0,-0.109742 0.100217,-0.1646192 0.300763,-0.1646192 0.200544,0 1.228027,0.00444 1.228027,0.00444 h 0.258903 v 1.0736187 c 0,0.2540093 0.07728,0.4546651 0.231715,0.60185 0.154441,0.1471891 0.343512,0.2206728 0.567218,0.2206728 0.223597,0 0.436481,-0.092316 0.638539,-0.2771616 L 15.829182,2.6439393 c -0.08366,0.109742 -0.186152,0.1646109 -0.307475,0.1646109 -0.06342,0 -0.118291,-0.025325 -0.164503,-0.075752 -0.0461,-0.050549 -0.06916,-0.1204621 -0.06916,-0.2098605 V 1.4795199 h 0.562781 V 1.0119832 H 15.288047 V 0.31510887 H 14.634246 V 1.0119832 l -0.246992,0.00126 c 0,0 -0.944914,8.371e-4 -1.21916,8.371e-4 z m 4.600516,0.5691622 -0.0043,-0.61028877 c -0.129871,0.002512 -0.257688,0.0374639 -0.383231,0.10389847 -0.125434,0.066342 -0.23009,0.1471933 -0.313642,0.2424269 V 1.0119874 h -0.649361 v 2.3290439 h 0.649363 V 2.3323612 c 0,-0.2251182 0.04751,-0.4062885 0.142643,-0.5434189 0.09524,-0.1370132 0.239613,-0.2056286 0.432908,-0.2056286 h 0.12565 z m 1.073722,0.1256568 c 0.108226,-0.1211067 0.246649,-0.1817145 0.415483,-0.1817145 0.168833,0 0.307366,0.060608 0.415592,0.1817145 0.108227,0.1212114 0.16234,0.2770612 0.16234,0.4676414 0,0.1903751 -0.05411,0.3455719 -0.16234,0.465381 -0.108226,0.1197002 -0.246759,0.1795504 -0.415592,0.1795504 -0.168834,0 -0.307257,-0.05985 -0.415483,-0.1795504 C 18.734105,2.5221838 18.67999,2.366987 18.67999,2.1766119 c 0,-0.1905802 0.05411,-0.34643 0.162342,-0.4676414 z m 1.296343,-0.3873431 c -0.233771,-0.2323723 -0.52739,-0.34860247 -0.88086,-0.34860247 -0.353578,0 -0.647306,0.11623017 -0.881075,0.34860247 -0.233664,0.232251 -0.350549,0.5172109 -0.350549,0.8549845 0,0.3376731 0.116885,0.6218796 0.350549,0.8527283 0.233769,0.2309533 0.527497,0.3463253 0.881075,0.3463253 0.35347,0 0.647089,-0.115372 0.88086,-0.3463253 0.23377,-0.2308487 0.350655,-0.5150552 0.350655,-0.8527283 0,-0.3377736 -0.116885,-0.6227335 -0.350655,-0.8549845 z m 2.130016,0.1578967 V 1.0119874 h -0.56278 V 0.31510887 H 21.052112 V 1.0119874 h -0.272517 v 0.4675367 h 0.272517 v 1.0736145 c 0,0.2540093 0.07727,0.4546609 0.231713,0.60185 0.154441,0.1471849 0.343513,0.2206769 0.56722,0.2206769 0.223596,0 0.436479,-0.09232 0.638539,-0.2771657 L 22.247047,2.6439435 c -0.08366,0.1097462 -0.186151,0.1646067 -0.307473,0.1646067 -0.06342,0 -0.118292,-0.025325 -0.164505,-0.075752 -0.04611,-0.050549 -0.06916,-0.1204579 -0.06916,-0.2098563 V 1.4795241 Z"
       inkscapeconnectorcurvature="0" />
    <path
       id="path3929"
       d="M 0.01236032,1.8294996 V 0.34004433 l 0.31328301,0.0072 0.31328304,0.0072 0.71353703,0.93606137 c 0.3924453,0.5148375 0.7307909,0.9533324 0.7518793,0.9744126 0.034012,0.034031 0.038342,-0.07242 0.038342,-0.9424825 V 0.34160986 H 2.4635169 2.784349 V 1.8302698 3.3189339 H 2.4541268 2.1239046 L 1.4099763,2.3807796 C 1.0173159,1.8647659 0.68659279,1.4367357 0.6750362,1.4295946 0.66347974,1.4224367 0.65402461,1.8446358 0.65402461,2.3677824 V 3.3189716 H 0.33319235 0.01236032 Z"
       style="fill:#ffffff;fill-opacity:1;stroke:none;stroke-width:0.0256666"
       inkscapeconnectorcurvature="0" />
    <path
       id="path3931"
       d="M 4.3787782,3.3388379 C 3.9291312,3.2933496 3.5541357,2.9926381 3.423453,2.5727496 3.3624981,2.3769035 3.355241,2.0143075 3.4082456,1.8128439 3.5549464,1.2552598 4.1724595,0.89401171 4.7693574,1.0165877 c 0.1106503,0.022688 0.2550244,0.067184 0.320832,0.098813 0.1834918,0.088168 0.3967195,0.3056843 0.4816009,0.4912959 0.064712,0.1415005 0.074012,0.1947745 0.082702,0.4738407 l 0.00979,0.3144162 H 4.8129198 3.9615546 l 0.017813,0.057745 c 0.055571,0.1801532 0.1725335,0.2958517 0.3692166,0.3652499 0.2076056,0.073249 0.4830933,0.03085 0.683479,-0.105104 L 5.1313117,2.6454923 5.2940641,2.817282 C 5.476406,3.0097501 5.4764315,3.008846 5.2848258,3.1406686 5.041061,3.3083854 4.7364164,3.3750209 4.3787841,3.3388379 Z M 5.0291215,1.8752055 C 4.9730036,1.6146159 4.7769875,1.4782725 4.4924009,1.5018727 4.2532403,1.521672 4.0391033,1.684416 4.0009234,1.8753018 l -0.016664,0.083325 h 0.5314115 0.5314125 z"
       style="fill:#ffffff;fill-opacity:1;stroke:none;stroke-width:0.0256666"
       inkscapeconnectorcurvature="0" />
    <path
       id="path3933"
       d="M 6.8923781,3.3394156 C 6.72023,3.3129606 6.5645892,3.2244077 6.4453828,3.0851383 6.2887151,2.9021095 6.2750021,2.8234688 6.2750021,2.1080551 V 1.4709514 H 6.1338357 5.9926705 V 1.2541297 1.0373038 l 0.1347486,-0.00774 0.1347498,-0.00774 0.00715,-0.34007582 0.00716,-0.34008417 H 6.5837384 6.8909921 V 0.68815289 1.0346541 H 7.1733245 7.4556566 V 1.2528236 1.4709849 H 7.1733271 6.8909946 v 0.5787772 c 0,0.6371037 0.011888,0.6970167 0.1495479,0.7540371 0.096351,0.039934 0.2316453,0.014441 0.3269459,-0.06155 l 0.074344,-0.059285 0.1109982,0.2077466 0.1109981,0.2077383 -0.059168,0.047904 c -0.096677,0.078277 -0.3595654,0.1923467 -0.4698331,0.2038621 -0.056467,0.00599 -0.1655707,8.372e-4 -0.242455,-0.010758 z"
       style="fill:#ffffff;fill-opacity:1;stroke:none;stroke-width:0.0256666"
       inkscapeconnectorcurvature="0" />
    <path
       id="path3935"
       d="M 8.1229947,1.8285954 V 0.33823602 l 0.7764129,0.008665 c 0.7457289,0.00833 0.7824179,0.0110508 0.9283291,0.0693103 C 10.204233,0.5665608 10.40267,0.9522672 10.294666,1.3237876 10.243856,1.4985534 10.158346,1.6048588 9.9922613,1.6997115 l -0.1256199,0.071747 0.1538196,0.056091 c 0.317956,0.1159287 0.481396,0.3766983 0.458244,0.7311192 -0.0254,0.3888584 -0.262785,0.6434412 -0.6822308,0.7316676 -0.082575,0.017372 -0.4380344,0.02859 -0.9047461,0.02859 H 8.1229947 Z m 1.5333357,0.8928 c 0.1192482,-0.064773 0.1665804,-0.1510192 0.1665804,-0.303537 0,-0.2749263 -0.156309,-0.3536968 -0.7053374,-0.3554465 L 8.764659,2.0611562 v 0.3615913 0.361583 l 0.4042479,-0.00892 c 0.3251635,-0.0072 0.4205206,-0.017748 0.4874235,-0.054115 z M 9.5254559,1.4903238 c 0.1829623,-0.098641 0.1829623,-0.4534219 0,-0.55206703 C 9.4646037,0.90543924 9.3613938,0.89243363 9.1047406,0.88518363 L 8.764659,0.8755979 v 0.3386986 0.3387029 l 0.3400816,-0.00959 c 0.2566532,-0.00728 0.3598631,-0.02026 0.4207153,-0.053069 z"
       style="fill:#ffffff;fill-opacity:1;stroke:none;stroke-width:0.0256666"
       inkscapeconnectorcurvature="0" />
    <path
       id="path3937"
       d="M 11.023316,2.1767835 V 1.034629 h 0.307999 0.307999 v 1.1421545 1.142163 h -0.307999 -0.307999 z"
       style="fill:#ffffff;fill-opacity:1;stroke:none;stroke-width:0.0256666"
       inkscapeconnectorcurvature="0" />
    <path
       id="path3939"
       d="M 11.149028,0.7453659 C 11.032426,0.6674661 10.966021,0.53528768 10.981161,0.41123408 c 0.05523,-0.45250094 0.71541,-0.42198985 0.71541,0.0330687 0,0.28985326 -0.309546,0.4600607 -0.547543,0.30106731 z"
       style="fill:#ffffff;fill-opacity:1;stroke:none;stroke-width:0.0256666"
       inkscapeconnectorcurvature="0" />
    <path
       id="path3941"
       d="M 12.959455,3.341789 C 12.686329,3.310897 12.248517,3.139304 12.154914,3.0265147 c -0.02095,-0.025199 0.004,-0.078704 0.101751,-0.2178473 l 0.129507,-0.1844102 0.07445,0.053014 C 12.665352,2.8230497 13.03088,2.9244157 13.234441,2.891866 13.435096,2.859718 13.49872,2.6956683 13.361478,2.5641805 13.314268,2.5189555 13.174317,2.4525968 12.97942,2.3830311 12.42973,2.1868418 12.268435,2.0290121 12.268248,1.687107 c -9.2e-5,-0.1572939 0.01024,-0.1983242 0.0769,-0.3056844 0.09466,-0.1524466 0.277293,-0.2818749 0.450018,-0.318916 0.07888,-0.016953 0.467619,-0.027878 0.988573,-0.027878 h 0.858567 V 0.68813196 0.34163498 h 0.307255 0.307253 l 0.0072,0.34007999 0.0072,0.34008003 0.275917,0.00728 0.275916,0.00728 V 1.2536539 1.4709445 H 15.53827 15.2535 l 0.0092,0.5839217 c 0.0099,0.6304607 0.01789,0.6697706 0.149152,0.7376451 0.102624,0.053069 0.151192,0.049038 0.296706,-0.024655 0.1411,-0.071433 0.126947,-0.080047 0.245584,0.1494913 0.04272,0.082642 0.07146,0.166415 0.06389,0.1861516 -0.01998,0.05206 -0.241328,0.1863483 -0.361436,0.2192663 -0.161852,0.044366 -0.405934,0.030934 -0.547787,-0.029971 C 14.952377,3.2255379 14.790939,3.0628777 14.714418,2.8955125 14.659184,2.774703 14.655219,2.72929 14.646777,2.120843 l -0.009,-0.6463336 -0.748502,-0.00816 c -0.851246,-0.00929 -0.95626,-8.372e-4 -1.022753,0.081161 -0.114546,0.1414586 -0.0058,0.2408697 0.418204,0.3821567 0.57529,0.1917146 0.724543,0.3291841 0.727338,0.6699171 0.0018,0.2235568 -0.06104,0.3796117 -0.207217,0.5143603 -0.133307,0.1228731 -0.282975,0.1959926 -0.446997,0.2183579 -0.06293,0.00854 -0.137509,0.01892 -0.165743,0.022855 -0.02823,0.00377 -0.132941,-0.00209 -0.232684,-0.013311 z"
       style="fill:#ffffff;fill-opacity:1;stroke:none;stroke-width:0.0256666"
       inkscapeconnectorcurvature="0" />
    <path
       id="path3943"
       d="M 16.43896,2.1767835 V 1.034629 h 0.307999 0.307999 v 0.1569799 0.1569883 l 0.105917,-0.095686 c 0.112451,-0.1016 0.365089,-0.2287345 0.503665,-0.25345644 l 0.08342,-0.01486 V 1.2791153 1.5736401 h -0.126664 c -0.165943,0 -0.25022,0.034073 -0.368246,0.148717 -0.168301,0.1635225 -0.198089,0.3152533 -0.198089,1.0089798 V 3.3189674 H 16.746959 16.43896 Z"
       style="fill:#ffffff;fill-opacity:1;stroke:none;stroke-width:0.0256666"
       inkscapeconnectorcurvature="0" />
    <path
       id="path3945"
       d="M 19.082617,3.3431536 C 18.747083,3.3047688 18.479831,3.1501622 18.272067,2.8742146 17.979974,2.4862603 17.979409,1.874046 18.27077,1.4782474 c 0.342047,-0.4646359 0.999097,-0.61974894 1.542746,-0.3642076 0.162961,0.076606 0.421905,0.3207411 0.50803,0.4789769 0.186687,0.3430059 0.192868,0.7942511 0.01564,1.1416606 -0.147355,0.2888403 -0.532786,0.5634987 -0.837166,0.5965632 -0.08135,0.00883 -0.171008,0.019423 -0.19924,0.023567 -0.02823,0.00444 -0.126409,-0.00126 -0.218166,-0.011637 z M 19.48769,2.7914215 c 0.121634,-0.050817 0.226602,-0.150563 0.295661,-0.2809666 0.07476,-0.1411865 0.07974,-0.5208945 0.0086,-0.6544962 -0.120437,-0.2261228 -0.292345,-0.3336713 -0.533359,-0.3336713 -0.36434,0 -0.58282,0.2406311 -0.585496,0.644856 -0.002,0.29766 0.100919,0.492535 0.316866,0.6001505 0.151196,0.075338 0.351855,0.085066 0.497744,0.024111 z"
       style="fill:#ffffff;fill-opacity:1;stroke:none;stroke-width:0.0256666"
       inkscapeconnectorcurvature="0" />
    <path
       id="path3947"
       d="M 21.701985,3.3394156 C 21.455226,3.3014494 21.23999,3.133946 21.13156,2.8954455 21.07682,2.7750462 21.072615,2.7270631 21.063517,2.1190305 l -0.0097,-0.6480791 H 20.928049 20.802278 V 1.2527902 1.034629 h 0.128333 0.128333 V 0.68813196 0.3416266 h 0.320832 0.320832 V 0.68813196 1.034629 h 0.269498 0.269501 v 0.2181612 0.2181612 h -0.269501 -0.269498 l 5.86e-4,0.5967515 c 5.86e-4,0.6436631 0.0044,0.6628471 0.145323,0.7349075 0.0834,0.042659 0.139959,0.035538 0.27967,-0.035371 0.06945,-0.035204 0.129025,-0.064111 0.132396,-0.064166 0.0034,-6.7e-5 0.05145,0.090026 0.106841,0.2001911 l 0.100713,0.2003083 -0.119676,0.081102 c -0.224141,0.1519066 -0.39548,0.1930541 -0.64446,0.154753 z"
       style="fill:#ffffff;fill-opacity:1;stroke:none;stroke-width:0.0256666"
       inkscapeconnectorcurvature="0" />
  </g>
</svg>
