<?xml version="1.0" encoding="UTF-8" standalone="no"?>
<svg
   xmlns:dc="http://purl.org/dc/elements/1.1/"
   xmlns:cc="http://creativecommons.org/ns#"
   xmlns:rdf="http://www.w3.org/1999/02/22-rdf-syntax-ns#"
   xmlns:svg="http://www.w3.org/2000/svg"
   xmlns="http://www.w3.org/2000/svg"
   xmlns:sodipodi="http://sodipodi.sourceforge.net/DTD/sodipodi-0.dtd"
   xmlns:inkscape="http://www.inkscape.org/namespaces/inkscape"
   id="svg8"
   version="1.1"
   viewBox="0 0 103.1875 50.175999"
   height="189.64157"
   width="390"
   sodipodi:docname="logo-v3.svg"
   inkscape:version="0.92.5 (2060ec1f9f, 2020-04-08)">
  <sodipodi:namedview
     pagecolor="#ffffff"
     bordercolor="#666666"
     borderopacity="1"
     objecttolerance="10"
     gridtolerance="10"
     guidetolerance="10"
     inkscape:pageopacity="0"
     inkscape:pageshadow="2"
     inkscape:window-width="1920"
     inkscape:window-height="1043"
     id="namedview33"
     showgrid="false"
     units="px"
     inkscape:zoom="2.8388604"
     inkscape:cx="184.84639"
     inkscape:cy="84.154423"
     inkscape:window-x="1600"
     inkscape:window-y="0"
     inkscape:window-maximized="1"
     inkscape:current-layer="svg8" />
  <defs
     id="defs2" />
  <metadata
     id="metadata5">
    <rdf:RDF>
      <cc:Work
         rdf:about="">
        <dc:format>image/svg+xml</dc:format>
        <dc:type
           rdf:resource="http://purl.org/dc/dcmitype/StillImage" />
        <dc:title></dc:title>
      </cc:Work>
    </rdf:RDF>
  </metadata>
  <rect
     style="opacity:1;fill:#ffffff;fill-opacity:1;stroke:none;stroke-width:1.21173549;stroke-linecap:butt;stroke-miterlimit:4;stroke-dasharray:none;stroke-opacity:1"
     id="rect1116"
     width="102.75026"
     height="50.006248"
     x="-1.3818359e-07"
     y="0.16974783" />
  <flowRoot
     xml:space="preserve"
     id="flowRoot892"
     style="font-style:normal;font-weight:normal;font-size:40px;line-height:1.25;font-family:sans-serif;letter-spacing:0px;word-spacing:0px;fill:#000000;fill-opacity:1;stroke:none"
     transform="translate(0,-246.82401)"><flowRegion
       id="flowRegion894"><rect
         id="rect896"
         width="441.42856"
         height="300"
         x="160"
         y="93.233971" /></flowRegion><flowPara
       id="flowPara898" /></flowRoot>  <text
     xml:space="preserve"
     style="font-style:normal;font-weight:normal;font-size:10.58333302px;line-height:1.25;font-family:sans-serif;letter-spacing:0px;word-spacing:0px;fill:#000000;fill-opacity:1;stroke:none;stroke-width:0.26458332"
     x="-62.541069"
     y="-298.34348"
     id="text969"><tspan
       id="tspan967"
       x="-62.541069"
       y="-288.97971"
       style="font-style:normal;font-variant:normal;font-weight:bold;font-stretch:normal;font-family:Roboto;-inkscape-font-specification:'Roboto Bold';stroke-width:0.26458332" /></text>
  <rect
     y="-0.00035614311"
     x="-1.3818359e-07"
     height="50.176342"
     width="70.587051"
     id="rect935"
     style="opacity:1;fill:#ffffff;fill-opacity:1;stroke:none;stroke-width:1.01035941;stroke-linecap:butt;stroke-miterlimit:4;stroke-dasharray:none;stroke-opacity:1" />
  <path
     style="opacity:1;fill:none;fill-opacity:1;stroke:#000000;stroke-width:0.62451756;stroke-linecap:butt;stroke-miterlimit:4;stroke-dasharray:none;stroke-opacity:1"
     id="path937"
     d="M 32.868949,31.37237 A 14.413825,14.413825 0 0 1 18.477811,45.78618 14.413825,14.413825 0 0 1 4.0413703,31.41775 14.413825,14.413825 0 0 1 18.387062,16.95871 14.413825,14.413825 0 0 1 32.868663,31.28162"
     inkscape:connector-curvature="0" />
  <rect
     style="opacity:1;fill:#ffffff;fill-opacity:1;stroke:none;stroke-width:1.0320791;stroke-linecap:butt;stroke-miterlimit:4;stroke-dasharray:none;stroke-opacity:1"
     id="rect939"
     width="60.55093"
     height="30.305311"
     x="10.084221"
     y="7.8632302" />
  <rect
     style="opacity:1;fill:#fe0000;fill-opacity:1;stroke:none;stroke-width:1.32291663;stroke-linecap:round;stroke-miterlimit:4;stroke-dasharray:none;stroke-opacity:1"
     id="rect941"
     width="14.900276"
     height="14.900276"
     x="10.877914"
     y="19.025415" />
  <rect
     style="opacity:1;fill:#fd9500;fill-opacity:1;stroke:none;stroke-width:2.00339603;stroke-linecap:round;stroke-miterlimit:4;stroke-dasharray:none;stroke-opacity:1"
     id="rect943"
     width="9.2080002"
     height="9.2080002"
     x="25.778191"
     y="9.8174086" />
  <rect
     style="opacity:1;fill:#00c100;fill-opacity:1;stroke:none;stroke-width:1.50234938;stroke-linecap:round;stroke-miterlimit:4;stroke-dasharray:none;stroke-opacity:1"
     id="rect945"
     width="5.691"
     height="5.691"
     x="20.087181"
     y="4.1264138" />
  <rect
     y="9.8174086"
     x="16.57019"
     height="3.517"
     width="3.517"
     id="rect947"
     style="opacity:1;fill:#01c5ff;fill-opacity:1;stroke:none;stroke-width:0.92844188;stroke-linecap:round;stroke-miterlimit:4;stroke-dasharray:none;stroke-opacity:1" />
  <path
     inkscape:connector-curvature="0"
     d="m 18.499573,25.530866 2.775024,6.640422 2.78536,-6.640422 h 0.847493 v 7.524088 h -0.63562 v -3.276285 l 0.05168,-3.358968 -2.800863,6.635253 h -0.490926 l -2.790527,-6.609415 0.05168,3.312459 v 3.296956 h -0.63562 v -7.524088 z"
     style="font-style:normal;font-weight:normal;font-size:10.58333302px;line-height:1.25;font-family:sans-serif;letter-spacing:0px;word-spacing:0px;fill:#ffffff;fill-opacity:1;stroke:none;stroke-width:0.26458332"
     id="path950" />
  <path
     inkscape:connector-curvature="0"
     d="m 30.266296,32.346987 q -0.558105,0.81132 -1.782837,0.81132 -0.894002,0 -1.35909,-0.516764 -0.465088,-0.521932 -0.475423,-1.539958 v -3.63802 h 0.61495 v 3.560506 q 0,1.596801 1.29191,1.596801 1.343588,0 1.700155,-1.111043 v -4.046264 h 0.620117 v 5.591389 h -0.599447 z"
     style="font-style:normal;font-variant:normal;font-weight:300;font-stretch:normal;font-size:10.58333302px;line-height:1.25;font-family:Roboto;-inkscape-font-specification:'Roboto weight=255';letter-spacing:0px;word-spacing:0px;fill:#000000;fill-opacity:1;stroke:none;stroke-width:0.26458332"
     id="path952" />
  <path
     inkscape:connector-curvature="0"
     d="m 33.175677,33.054954 h -0.62011 v -7.937499 h 0.62011 z"
     style="font-style:normal;font-variant:normal;font-weight:300;font-stretch:normal;font-size:10.58333302px;line-height:1.25;font-family:Roboto;-inkscape-font-specification:'Roboto weight=255';letter-spacing:0px;word-spacing:0px;fill:#000000;fill-opacity:1;stroke:none;stroke-width:0.26458332"
     id="path954" />
  <path
     inkscape:connector-curvature="0"
     d="m 35.816347,26.032128 v 1.431437 h 1.15755 v 0.506429 h -1.15755 v 3.72587 q 0,0.465088 0.16536,0.692465 0.17053,0.227376 0.56327,0.227376 0.15503,0 0.50127,-0.05168 l 0.0258,0.506429 q -0.24287,0.08785 -0.66145,0.08785 -0.63562,0 -0.92501,-0.366902 -0.28939,-0.372071 -0.28939,-1.090373 v -3.731038 h -1.02836 v -0.506429 h 1.02836 v -1.431437 z"
     style="font-style:normal;font-variant:normal;font-weight:300;font-stretch:normal;font-size:10.58333302px;line-height:1.25;font-family:Roboto;-inkscape-font-specification:'Roboto weight=255';letter-spacing:0px;word-spacing:0px;fill:#000000;fill-opacity:1;stroke:none;stroke-width:0.26458332"
     id="path956" />
  <path
     inkscape:connector-curvature="0"
     d="m 38.947937,33.054954 h -0.62012 v -5.591389 h 0.62012 z m -0.72864,-7.208862 q 0,-0.175699 0.11369,-0.294555 0.11369,-0.124024 0.31006,-0.124024 0.19637,0 0.31006,0.124024 0.11885,0.118856 0.11885,0.294555 0,0.1757 -0.11885,0.294556 -0.11369,0.118856 -0.31006,0.118856 -0.19637,0 -0.31006,-0.118856 -0.11369,-0.118856 -0.11369,-0.294556 z"
     style="font-style:normal;font-variant:normal;font-weight:300;font-stretch:normal;font-size:10.58333302px;line-height:1.25;font-family:Roboto;-inkscape-font-specification:'Roboto weight=255';letter-spacing:0px;word-spacing:0px;fill:#000000;fill-opacity:1;stroke:none;stroke-width:0.26458332"
     id="path958" />
  <path
     inkscape:connector-curvature="0"
     d="m 46.099957,30.708845 q -0.12919,1.188557 -0.85266,1.81901 -0.71831,0.630452 -1.9172,0.630452 -0.83716,0 -1.48311,-0.418579 -0.64079,-0.418579 -0.99219,-1.18339 -0.3514,-0.769979 -0.35657,-1.756999 v -0.976684 q 0,-1.002523 0.3514,-1.777669 0.3514,-0.775147 1.00769,-1.193726 0.66146,-0.423747 1.51929,-0.423747 1.20923,0 1.90686,0.656291 0.7028,0.651123 0.81649,1.803507 h -0.64079 q -0.23771,-1.917195 -2.08256,-1.917195 -1.02319,0 -1.63297,0.764811 -0.60462,0.764811 -0.60462,2.113566 v 0.91984 q 0,1.302247 0.58911,2.077393 0.59428,0.775146 1.60197,0.775146 0.99736,0 1.50379,-0.475423 0.50642,-0.480591 0.62528,-1.436604 z"
     style="font-style:normal;font-variant:normal;font-weight:300;font-stretch:normal;font-size:10.58333302px;line-height:1.25;font-family:Roboto;-inkscape-font-specification:'Roboto weight=255';letter-spacing:0px;word-spacing:0px;fill:#000000;fill-opacity:1;stroke:none;stroke-width:0.26458332"
     id="path960" />
  <path
     inkscape:connector-curvature="0"
     d="m 51.706847,30.946556 h -3.41581 l -0.77515,2.108398 h -0.66662 l 2.84737,-7.524088 h 0.60461 l 2.84737,7.524088 h -0.66146 z m -3.21944,-0.542602 h 3.0179 l -1.50895,-4.097941 z"
     style="font-style:normal;font-variant:normal;font-weight:300;font-stretch:normal;font-size:10.58333302px;line-height:1.25;font-family:Roboto;-inkscape-font-specification:'Roboto weight=255';letter-spacing:0px;word-spacing:0px;fill:#000000;fill-opacity:1;stroke:none;stroke-width:0.26458332"
     id="path962" />
  <path
     inkscape:connector-curvature="0"
     d="m 58.512637,31.204938 q 0,-0.625285 -0.43925,-0.98702 -0.43925,-0.366902 -1.60714,-0.692464 -1.16789,-0.330729 -1.70532,-0.718302 -0.76481,-0.54777 -0.76481,-1.436605 0,-0.862996 0.70796,-1.400431 0.71314,-0.542603 1.81901,-0.542603 0.74931,0 1.33842,0.289388 0.59428,0.289388 0.91984,0.806153 0.32557,0.516764 0.32557,1.152384 h -0.64079 q 0,-0.769979 -0.5271,-1.235067 -0.5271,-0.470255 -1.41594,-0.470255 -0.86299,0 -1.37459,0.387573 -0.5116,0.382406 -0.5116,1.002523 0,0.573608 0.45992,0.935343 0.45992,0.361735 1.47278,0.640788 1.01286,0.273885 1.53479,0.573608 0.52193,0.294556 0.78548,0.707967 0.26355,0.413412 0.26355,0.976685 0,0.888835 -0.71313,1.426269 -0.70797,0.537435 -1.87069,0.537435 -0.79581,0 -1.46244,-0.28422 -0.66146,-0.28422 -1.00769,-0.795817 -0.34107,-0.511597 -0.34107,-1.173055 h 0.63562 q 0,0.795817 0.59428,1.255737 0.59428,0.45992 1.5813,0.45992 0.8785,0 1.41077,-0.387573 0.53227,-0.387573 0.53227,-1.028361 z"
     style="font-style:normal;font-variant:normal;font-weight:300;font-stretch:normal;font-size:10.58333302px;line-height:1.25;font-family:Roboto;-inkscape-font-specification:'Roboto weight=255';letter-spacing:0px;word-spacing:0px;fill:#000000;fill-opacity:1;stroke:none;stroke-width:0.26458332"
     id="path964" />
  <path
     inkscape:connector-curvature="0"
     d="m 65.628477,26.073469 h -2.57865 v 6.981485 h -0.63562 v -6.981485 h -2.57349 v -0.542603 h 5.78776 z"
     style="font-style:normal;font-variant:normal;font-weight:300;font-stretch:normal;font-size:10.58333302px;line-height:1.25;font-family:Roboto;-inkscape-font-specification:'Roboto weight=255';letter-spacing:0px;word-spacing:0px;fill:#000000;fill-opacity:1;stroke:none;stroke-width:0.26458332"
     id="path966" />
  <text
     xml:space="preserve"
     style="font-style:normal;font-variant:normal;font-weight:normal;font-stretch:normal;font-size:10.58333302px;line-height:1.25;font-family:Roboto;-inkscape-font-specification:Roboto;letter-spacing:0px;word-spacing:0px;fill:#000000;fill-opacity:1;stroke:none;stroke-width:0.26458332"
     x="10.650383"
     y="37.167507"
     id="text974"><tspan
       id="tspan972"
       x="10.650383"
       y="37.167507"
       style="font-style:normal;font-variant:normal;font-weight:300;font-stretch:normal;font-size:2.82222223px;font-family:Roboto;-inkscape-font-specification:'Roboto Light';stroke-width:0.26458332">Multiscale Thermal-related Urban Climate Analysis and Simulation Tool</tspan></text>
</svg>
